<svg width="26" height="25" viewBox="0 0 26 25" fill="none" xmlns="http://www.w3.org/2000/svg">
<path fill-rule="evenodd" clip-rule="evenodd" d="M24.874 19.1149C24.7839 19.0249 19.8147 16.1156 19.6496 16.0406C19.4845 15.9656 19.3193 15.9207 19.1692 15.9207C18.944 15.9207 18.6588 16.0856 18.3135 16.4005C17.9682 16.7305 16.9023 18.1851 16.587 18.5001C16.2718 18.83 16.0165 18.9799 15.8064 18.9799C15.7013 18.9799 15.5812 18.9499 15.4311 18.89C15.2809 18.83 13.6896 18.0202 10.3868 15.1108C7.08405 12.2165 6.64868 10.312 6.63367 9.78709C6.63367 9.57714 6.79881 9.3222 7.11407 9.00727C7.44435 8.69234 7.78964 8.39241 8.16495 8.10748C8.54027 7.82255 8.90057 7.50762 9.21584 7.1777C9.54611 6.83278 9.69624 6.54785 9.69624 6.3229C9.69624 6.15794 9.6512 6.00797 9.57614 5.84301C9.50108 5.69305 6.49855 0.729207 6.39347 0.624231C6.16828 0.399284 5.28253 0.504259 4.83216 0.744203C1.24414 2.69375 0.958902 5.30314 1.00394 6.33789C1.06399 7.40265 1.73956 13.0263 7.24919 18.2601C14.0949 24.7536 18.8539 24.4986 19.1692 24.4986C20.2051 24.4986 23.4028 23.9288 24.7539 20.6745C24.9491 20.1947 25.1292 19.3698 24.874 19.1149Z" stroke="white"/>
</svg>
