<svg width="782" height="189" viewBox="0 0 782 189" fill="none" xmlns="http://www.w3.org/2000/svg">
<circle cx="727" cy="72" r="55" fill="#FCC70E"/>
<circle cx="112" cy="72" r="55" fill="#FCC70E"/>
<path d="M114.844 123.375C114.222 123.375 113.626 123.622 113.186 124.061C112.747 124.501 112.5 125.097 112.5 125.719C112.5 126.34 112.747 126.936 113.186 127.376C113.626 127.816 114.222 128.062 114.844 128.062C120.436 128.069 125.797 130.294 129.752 134.248C133.706 138.203 135.931 143.564 135.938 149.156V181.969C135.938 182.59 136.184 183.186 136.624 183.626C137.064 184.066 137.66 184.312 138.281 184.312C138.903 184.312 139.499 184.066 139.939 183.626C140.378 183.186 140.625 182.59 140.625 181.969V149.156C140.617 142.321 137.898 135.768 133.065 130.935C128.232 126.102 121.679 123.383 114.844 123.375ZM66.9211 55.6523C66.6456 55.7899 66.4 55.9804 66.1981 56.2129C65.9963 56.4455 65.8422 56.7155 65.7447 57.0075C65.6472 57.2996 65.6082 57.608 65.6298 57.9152C65.6515 58.2223 65.7335 58.5222 65.8711 58.7977C66.0087 59.0731 66.1992 59.3188 66.4317 59.5206C66.6642 59.7225 66.9342 59.8766 67.2263 59.9741C67.5184 60.0716 67.8268 60.1106 68.1339 60.0889C68.4411 60.0672 68.7409 59.9852 69.0164 59.8477C71.7747 58.4715 74.8144 57.7535 77.8969 57.75H90.8531C93.9356 57.7535 96.9753 58.4715 99.7336 59.8477C100.29 60.1255 100.934 60.171 101.524 59.9741C101.816 59.8766 102.086 59.7225 102.318 59.5206C102.551 59.3188 102.741 59.0731 102.879 58.7977C103.016 58.5222 103.098 58.2223 103.12 57.9152C103.142 57.608 103.103 57.2996 103.005 57.0075C102.908 56.7155 102.754 56.4455 102.552 56.2129C102.35 55.9804 102.104 55.7899 101.829 55.6523C98.4192 53.9535 94.6626 53.0671 90.8531 53.0625H77.8969C74.0874 53.0671 70.3308 53.9535 66.9211 55.6523Z" fill="white"/>
<path d="M101.705 153.654C102.126 153.473 102.485 153.173 102.738 152.79C102.99 152.407 103.125 151.959 103.125 151.5V143.095L107.126 139.095C107.565 138.655 107.812 138.059 107.813 137.438V125.719C107.813 125.097 107.566 124.501 107.126 124.061C106.687 123.622 106.09 123.375 105.469 123.375H100.781V120.391C104.404 117.794 107.356 114.372 109.393 110.408C111.431 106.443 112.496 102.051 112.5 97.5938V95.0156C115.145 94.4716 117.522 93.0324 119.23 90.9404C120.937 88.8485 121.872 86.2317 121.875 83.5312V81.1875C121.868 78.6894 121.218 76.2351 119.986 74.0617C118.755 71.8883 116.983 70.069 114.844 68.7797V64.7812C114.837 59.1889 112.612 53.8276 108.658 49.8733C104.704 45.9189 99.3423 43.6943 93.75 43.6875C93.1284 43.6875 92.5323 43.9344 92.0927 44.374C91.6532 44.8135 91.4063 45.4096 91.4063 46.0312C91.4063 46.6529 91.6532 47.249 92.0927 47.6885C92.5323 48.1281 93.1284 48.375 93.75 48.375C98.0997 48.38 102.27 50.1101 105.346 53.1858C108.421 56.2615 110.151 60.4316 110.156 64.7812V66.9187C93.2425 62.5805 75.5075 62.5805 58.5938 66.9187V64.7812C58.5987 60.4316 60.3288 56.2615 63.4045 53.1858C66.4802 50.1101 70.6503 48.38 75 48.375H84.375C84.9966 48.375 85.5928 48.1281 86.0323 47.6885C86.4718 47.249 86.7188 46.6529 86.7188 46.0312C86.7188 45.4096 86.4718 44.8135 86.0323 44.374C85.5928 43.9344 84.9966 43.6875 84.375 43.6875H75C69.4077 43.6943 64.0464 45.9189 60.092 49.8733C56.1377 53.8276 53.9131 59.1889 53.9063 64.7812V68.7797C51.7666 70.069 49.9954 71.8883 48.7638 74.0617C47.5321 76.2351 46.8816 78.6894 46.875 81.1875V83.5312C46.8784 86.2317 47.8127 88.8485 49.5205 90.9404C51.2282 93.0324 53.6049 94.4716 56.25 95.0156V97.5938C56.254 102.051 57.3188 106.443 59.3566 110.408C61.3943 114.372 64.3464 117.794 67.9688 120.391V123.375H53.9063C49.0966 123.367 44.3832 124.722 40.3125 127.284L39.6539 126.143C41.4865 122.974 42.3498 119.337 42.1371 115.683C41.9245 112.029 40.6451 108.517 38.4574 105.582C36.2696 102.647 33.2695 100.418 29.828 99.1698C26.3866 97.9221 22.6549 97.7107 19.0946 98.5617C18.7398 98.6465 18.4097 98.8129 18.1306 99.0477C17.8514 99.2825 17.6309 99.5792 17.4866 99.9142C17.3423 100.249 17.2782 100.613 17.2994 100.977C17.3206 101.342 17.4265 101.696 17.6086 102.012L25.4672 115.624C25.778 116.163 25.8622 116.802 25.7014 117.403C25.5405 118.003 25.1477 118.515 24.6094 118.826C24.0711 119.137 23.4314 119.221 22.831 119.06C22.2306 118.899 21.7187 118.506 21.4078 117.968L13.5492 104.355C13.3663 104.04 13.1121 103.771 12.8069 103.57C12.5017 103.37 12.1539 103.244 11.7913 103.202C11.4286 103.16 11.0612 103.203 10.7182 103.328C10.3752 103.453 10.0661 103.656 9.81566 103.922C7.30054 106.587 5.62023 109.929 4.98189 113.537C4.34356 117.146 4.77511 120.862 6.22334 124.228C7.67157 127.594 10.0732 130.462 13.132 132.48C16.1909 134.497 19.7733 135.575 23.4375 135.581H23.4563L28.5985 144.487C28.2987 146.026 28.1402 147.589 28.125 149.156V181.969C28.125 182.59 28.372 183.186 28.8115 183.626C29.251 184.066 29.8472 184.312 30.4688 184.312C31.0904 184.312 31.6865 184.066 32.1261 183.626C32.5656 183.186 32.8125 182.59 32.8125 181.969V151.784L38.2336 161.173C37.8214 162.047 37.4866 162.956 37.2328 163.889C36.5532 166.422 36.4904 169.08 37.0498 171.642C37.6092 174.204 38.7744 176.594 40.4479 178.613C42.1214 180.631 44.2544 182.219 46.6681 183.244C49.0818 184.268 51.7059 184.699 54.3205 184.501C56.9351 184.302 59.464 183.48 61.6953 182.103C63.9267 180.726 65.7954 178.834 67.1449 176.586C68.4944 174.337 69.2854 171.798 69.4516 169.182C69.6178 166.565 69.1543 163.946 68.1 161.545C67.986 161.25 67.8135 160.981 67.5928 160.755C67.3721 160.528 67.1078 160.349 66.8158 160.227C66.5239 160.105 66.2104 160.044 65.8941 160.047C65.5778 160.049 65.2653 160.116 64.9755 160.242C64.6856 160.369 64.4244 160.553 64.2076 160.783C63.9908 161.014 63.8228 161.285 63.7137 161.582C63.6047 161.879 63.5569 162.195 63.5732 162.511C63.5895 162.827 63.6696 163.136 63.8086 163.42C64.9228 165.953 65.1055 168.799 64.3244 171.454C63.5434 174.109 61.8489 176.402 59.5404 177.928C57.232 179.454 54.4583 180.115 51.7097 179.794C48.961 179.473 46.4144 178.191 44.5199 176.173C42.6255 174.156 41.5052 171.534 41.3572 168.771C41.2091 166.007 42.0428 163.28 43.7108 161.072C45.3789 158.864 47.7739 157.317 50.4725 156.704C53.1711 156.091 55.9996 156.452 58.4578 157.723C58.7322 157.874 59.0342 157.969 59.3458 158.002C59.6575 158.034 59.9725 158.004 60.2724 157.913C60.5722 157.822 60.8507 157.671 61.0914 157.471C61.332 157.27 61.53 157.023 61.6736 156.745C61.8172 156.466 61.9035 156.161 61.9273 155.849C61.9511 155.537 61.9121 155.222 61.8124 154.925C61.7128 154.628 61.5545 154.354 61.3471 154.119C61.1397 153.884 60.8872 153.693 60.6047 153.558C58.6956 152.575 56.6128 151.975 54.4735 151.791L42.6563 131.344C46.0148 129.196 49.9195 128.057 53.9063 128.062H68.768L79.9219 154.078L70.3125 149.955V142.125C70.3124 141.503 70.0654 140.907 69.6258 140.468L65.625 136.467V135.094C65.625 134.472 65.3781 133.876 64.9386 133.436C64.499 132.997 63.9029 132.75 63.2813 132.75C62.6597 132.75 62.0635 132.997 61.624 133.436C61.1845 133.876 60.9375 134.472 60.9375 135.094V137.438C60.9377 138.059 61.1847 138.655 61.6242 139.095L65.625 143.095V151.5C65.6251 151.959 65.7597 152.407 66.0121 152.79C66.2646 153.173 66.6238 153.473 67.0453 153.654L82.0313 160.076V181.969C82.0313 182.59 82.2782 183.186 82.7177 183.626C83.1573 184.066 83.7534 184.312 84.375 184.312C84.9966 184.312 85.5928 184.066 86.0323 183.626C86.4718 183.186 86.7188 182.59 86.7188 181.969V160.076L101.705 153.654ZM12.8391 126.056C10.9223 123.838 9.74115 121.08 9.45862 118.163C9.17609 115.245 9.80611 112.312 11.2617 109.767L17.3555 120.314C17.8172 121.114 18.432 121.816 19.1647 122.378C19.8975 122.941 20.7339 123.354 21.6262 123.593C22.5186 123.833 23.4493 123.894 24.3653 123.774C25.2813 123.653 26.1646 123.354 26.9649 122.892C27.7651 122.431 28.4666 121.816 29.0292 121.083C29.5919 120.35 30.0047 119.514 30.2441 118.621C30.4835 117.729 30.5448 116.798 30.4245 115.882C30.3042 114.966 30.0047 114.083 29.543 113.283L23.4375 102.75C26.7843 102.743 30.0238 103.93 32.5739 106.097C35.1241 108.265 36.8176 111.27 37.3502 114.575C37.8828 117.879 37.2196 121.264 35.4797 124.123C33.7398 126.982 31.0373 129.127 27.8578 130.172C25.229 131.058 22.3958 131.139 19.7204 130.406C17.045 129.673 14.6491 128.158 12.8391 126.056ZM44.8758 153.928C43.5009 154.721 42.2481 155.708 41.1563 156.86L28.4368 134.829C28.7532 134.74 29.0742 134.695 29.386 134.595C32.0769 133.671 34.5284 132.161 36.5625 130.172L49.2821 152.203C47.7375 152.562 46.2533 153.143 44.8758 153.928ZM103.125 136.467L99.1242 140.468C98.6847 140.907 98.4377 141.503 98.4375 142.125V149.955L88.8282 154.078L99.9821 128.062H103.125V136.467ZM84.375 152.58L80.7188 144.049C81.9175 144.328 83.1443 144.469 84.375 144.469C85.6079 144.467 86.8365 144.323 88.036 144.038L84.375 152.58ZM112.5 90.1312V82.1625L117.188 83.1V83.5312C117.182 84.9803 116.728 86.3921 115.889 87.5735C115.05 88.7549 113.866 89.6482 112.5 90.1312ZM51.5625 83.5312V83.1094L56.25 82.1719V90.1406C54.8823 89.6571 53.6977 88.7623 52.8585 87.5791C52.0193 86.3958 51.5666 84.9819 51.5625 83.5312ZM60.9375 97.5938V81.3281C70.2514 79.6798 79.7127 79.0144 89.1656 79.343C89.4755 79.3631 89.7863 79.3197 90.0788 79.2155C90.3713 79.1112 90.6395 78.9483 90.8668 78.7368C91.0942 78.5252 91.2759 78.2695 91.4009 77.9852C91.5259 77.7009 91.5916 77.3941 91.5938 77.0836C91.6048 76.776 91.555 76.4692 91.4474 76.1808C91.3398 75.8923 91.1764 75.6279 90.9666 75.4027C90.7568 75.1774 90.5046 74.9957 90.2246 74.8679C89.9445 74.7401 89.6421 74.6687 89.3344 74.6578C78.4766 74.2659 67.61 75.1366 56.9532 77.2523L52.0313 78.2391C52.5293 76.6532 53.4199 75.2188 54.6205 74.069C55.821 72.9193 57.2925 72.0915 58.8985 71.6625C75.6027 67.214 93.1802 67.214 109.884 71.6625C111.49 72.0915 112.962 72.9193 114.162 74.069C115.363 75.2188 116.254 76.6532 116.752 78.2391L111.83 77.2523C107.548 76.4014 103.228 75.7515 98.8852 75.3047C98.5781 75.2683 98.2668 75.2939 97.9697 75.3798C97.6727 75.4657 97.3958 75.6102 97.1555 75.8049C96.9152 75.9995 96.7163 76.2403 96.5706 76.5131C96.4249 76.7858 96.3353 77.085 96.3071 77.393C96.2746 77.6994 96.3029 78.0093 96.3903 78.3048C96.4777 78.6003 96.6226 78.8757 96.8165 79.1151C97.0105 79.3546 97.2498 79.5535 97.5207 79.7003C97.7916 79.8472 98.0888 79.9392 98.3953 79.9711C101.611 80.3063 104.754 80.7773 107.834 81.3164V97.5938C107.834 103.81 105.364 109.771 100.969 114.167C96.5735 118.562 90.6121 121.031 84.3961 121.031C78.1801 121.031 72.2187 118.562 67.8233 114.167C63.4279 109.771 60.9586 103.81 60.9586 97.5938H60.9375ZM72.6563 123.141C76.3275 124.847 80.3268 125.73 84.375 125.73C88.4232 125.73 92.4226 124.847 96.0938 123.141V125.25L90.668 137.906C88.7834 139.093 86.6019 139.722 84.375 139.722C82.1481 139.722 79.9666 139.093 78.0821 137.906L72.6563 125.25V123.141ZM112.5 170.25H98.4375C97.8159 170.25 97.2198 170.497 96.7802 170.936C96.3407 171.376 96.0938 171.972 96.0938 172.594V181.969C96.0938 182.59 96.3407 183.186 96.7802 183.626C97.2198 184.066 97.8159 184.312 98.4375 184.312H112.5C113.122 184.312 113.718 184.066 114.157 183.626C114.597 183.186 114.844 182.59 114.844 181.969V172.594C114.844 171.972 114.597 171.376 114.157 170.936C113.718 170.497 113.122 170.25 112.5 170.25ZM110.156 179.625H100.781V174.938H110.156V179.625ZM121.875 151.5C121.253 151.5 120.657 151.747 120.218 152.186C119.778 152.626 119.531 153.222 119.531 153.844V181.969C119.531 182.59 119.778 183.186 120.218 183.626C120.657 184.066 121.253 184.312 121.875 184.312C122.497 184.312 123.093 184.066 123.532 183.626C123.972 183.186 124.219 182.59 124.219 181.969V153.844C124.219 153.222 123.972 152.626 123.532 152.186C123.093 151.747 122.497 151.5 121.875 151.5Z" fill="white"/>
<path d="M77.3439 90.1617C77.8074 90.1616 78.2604 90.0241 78.6458 89.7666C79.0311 89.509 79.3314 89.143 79.5088 88.7148C79.6861 88.2866 79.7325 87.8154 79.6421 87.3609C79.5517 86.9063 79.3286 86.4887 79.0009 86.1609C77.292 84.5285 75.0197 83.6176 72.6564 83.6176C70.2931 83.6176 68.0208 84.5285 66.3119 86.1609C65.8849 86.603 65.6487 87.195 65.654 87.8095C65.6594 88.4241 65.9059 89.0119 66.3404 89.4464C66.775 89.881 67.3628 90.1275 67.9773 90.1328C68.5919 90.1382 69.1839 89.9019 69.6259 89.475C70.4417 88.6943 71.5272 88.2585 72.6564 88.2585C73.7855 88.2585 74.8711 88.6943 75.6869 89.475C76.1263 89.9146 76.7223 90.1616 77.3439 90.1617ZM93.0634 89.475C93.8792 88.6943 94.9647 88.2585 96.0939 88.2585C97.2231 88.2585 98.3086 88.6943 99.1244 89.475C99.5664 89.9019 100.158 90.1382 100.773 90.1328C101.387 90.1275 101.975 89.881 102.41 89.4464C102.844 89.0119 103.091 88.4241 103.096 87.8095C103.102 87.195 102.865 86.603 102.438 86.1609C100.73 84.5285 98.4572 83.6176 96.0939 83.6176C93.7306 83.6176 91.4583 84.5285 89.7494 86.1609C89.3224 86.603 89.0862 87.195 89.0915 87.8095C89.0969 88.4241 89.3434 89.0119 89.7779 89.4464C90.2125 89.881 90.8003 90.1275 91.4148 90.1328C92.0294 90.1382 92.6214 89.9019 93.0634 89.475ZM95.1564 110.405C95.4026 110.22 95.6101 109.989 95.7669 109.724C95.9237 109.459 96.0268 109.166 96.0703 108.861C96.1139 108.556 96.097 108.246 96.0206 107.948C95.9442 107.65 95.8098 107.37 95.6251 107.123C95.4405 106.877 95.2091 106.67 94.9443 106.513C94.6794 106.356 94.3863 106.253 94.0816 106.209C93.7769 106.166 93.4666 106.183 93.1685 106.259C92.8703 106.336 92.5901 106.47 92.3439 106.655C90.0399 108.367 87.2457 109.292 84.3751 109.292C81.5046 109.292 78.7104 108.367 76.4064 106.655C76.1602 106.47 75.88 106.336 75.5818 106.259C75.2837 106.183 74.9734 106.166 74.6687 106.209C74.364 106.253 74.0709 106.356 73.806 106.513C73.5412 106.67 73.3098 106.877 73.1251 107.123C72.9405 107.37 72.8061 107.65 72.7297 107.948C72.6533 108.246 72.6364 108.556 72.6799 108.861C72.7235 109.166 72.8266 109.459 72.9834 109.724C73.1402 109.989 73.3477 110.22 73.5939 110.405C76.7093 112.725 80.4904 113.979 84.3751 113.979C88.2599 113.979 92.041 112.725 95.1564 110.405ZM77.3744 100.312C77.4336 100.679 77.5793 101.027 77.7994 101.327C78.0194 101.626 78.3076 101.869 78.64 102.035L83.3275 104.379C83.603 104.516 83.9028 104.598 84.21 104.62C84.5171 104.642 84.8255 104.603 85.1176 104.505C85.4097 104.408 85.6797 104.254 85.9122 104.052C86.1447 103.85 86.3352 103.604 86.4728 103.329C86.6104 103.053 86.6924 102.754 86.7141 102.446C86.7357 102.139 86.6967 101.831 86.5992 101.539C86.5017 101.247 86.3476 100.977 86.1458 100.744C85.9439 100.512 85.6983 100.321 85.4228 100.184L83.6439 99.2953L86.0322 96.907C86.4591 96.465 86.6954 95.873 86.69 95.2584C86.6847 94.6439 86.4382 94.0561 86.0036 93.6215C85.5691 93.187 84.9812 92.9405 84.3667 92.9351C83.7522 92.9298 83.1601 93.166 82.7181 93.593L78.0306 98.2805C77.7681 98.543 77.5717 98.8641 77.4576 99.2174C77.3435 99.5707 77.315 99.946 77.3744 100.312ZM49.5634 162.047C48.3595 162.742 47.3888 163.779 46.774 165.026C46.1592 166.273 45.9279 167.674 46.1093 169.053C46.2908 170.431 46.8768 171.725 47.7933 172.77C48.7098 173.816 49.9157 174.566 51.2585 174.926C52.6013 175.287 54.0208 175.241 55.3375 174.794C56.6543 174.348 57.8092 173.521 58.6562 172.419C59.5032 171.316 60.0044 169.988 60.0963 168.6C60.1883 167.213 59.8669 165.83 59.1728 164.625C58.7115 163.824 58.0969 163.123 57.3642 162.56C56.6314 161.997 55.7949 161.584 54.9025 161.344C54.01 161.105 53.0791 161.044 52.163 161.164C51.2469 161.285 50.3635 161.585 49.5634 162.047ZM54.2509 170.166C53.8495 170.397 53.3883 170.505 52.9258 170.475C52.4632 170.444 52.02 170.278 51.6522 169.995C51.2845 169.713 51.0086 169.328 50.8596 168.889C50.7106 168.45 50.6951 167.977 50.8151 167.529C50.9351 167.082 51.1851 166.679 51.5336 166.374C51.8821 166.068 52.3135 165.873 52.7731 165.812C53.2326 165.752 53.6999 165.829 54.1156 166.034C54.5313 166.239 54.877 166.563 55.1087 166.964C55.4195 167.502 55.5037 168.142 55.3429 168.743C55.182 169.343 54.7892 169.855 54.2509 170.166ZM7.20015 74.7844L11.8876 82.9031C12.1985 83.4414 12.7104 83.8342 13.3108 83.9951C13.9112 84.1559 14.5509 84.0717 15.0892 83.7609L16.4673 82.9641C17.1911 83.464 17.9546 83.9037 18.7501 84.2789V85.875C18.7501 86.4966 18.9971 87.0927 19.4366 87.5323C19.8762 87.9718 20.4723 88.2188 21.0939 88.2188H30.4689C31.0905 88.2188 31.6866 87.9718 32.1262 87.5323C32.5657 87.0927 32.8126 86.4966 32.8126 85.875V84.2789C33.6082 83.9037 34.3717 83.464 35.0955 82.9641L36.4736 83.7609C37.0119 84.0717 37.6516 84.1559 38.252 83.9951C38.8524 83.8342 39.3643 83.4414 39.6751 82.9031L44.3626 74.7844C44.6734 74.2461 44.7577 73.6063 44.5968 73.0059C44.4359 72.4055 44.0431 71.8936 43.5048 71.5828L42.1314 70.7883C42.2059 69.9102 42.2059 69.0273 42.1314 68.1492L43.5048 67.3547C43.7735 67.2019 44.0094 66.9975 44.1987 66.7532C44.3881 66.5089 44.5273 66.2296 44.6083 65.9313C44.6893 65.633 44.7105 65.3216 44.6706 65.0151C44.6308 64.7086 44.5307 64.413 44.3762 64.1453C44.2216 63.8776 44.0156 63.6432 43.7701 63.4554C43.5246 63.2677 43.2443 63.1303 42.9455 63.0513C42.6467 62.9723 42.3352 62.9532 42.0289 62.9951C41.7227 63.037 41.4277 63.139 41.1611 63.2953L38.4376 64.875C38.0183 65.1168 37.6841 65.4825 37.481 65.9219C37.2779 66.3613 37.2158 66.8528 37.3033 67.3289C37.5783 68.7422 37.5783 70.1953 37.3033 71.6086C37.2158 72.0847 37.2779 72.5762 37.481 73.0156C37.6841 73.455 38.0183 73.8207 38.4376 74.0625L39.1408 74.4703L36.797 78.5297L36.0939 78.1219C35.6741 77.8795 35.1895 77.7732 34.7068 77.8177C34.224 77.8622 33.767 78.0553 33.3986 78.3703C32.3067 79.3029 31.0521 80.026 29.6978 80.5031C29.2406 80.6646 28.8448 80.9638 28.5648 81.3597C28.2848 81.7555 28.1345 82.2284 28.1345 82.7133V83.5312H23.4376V82.7133C23.4377 82.2284 23.2874 81.7555 23.0074 81.3597C22.7274 80.9638 22.3315 80.6646 21.8744 80.5031C20.52 80.026 19.2654 79.3029 18.1736 78.3703C17.8052 78.0553 17.3481 77.8622 16.8654 77.8177C16.3827 77.7732 15.8981 77.8795 15.4783 78.1219L14.7751 78.5297L12.4314 74.4703L13.1345 74.0625C13.5539 73.8207 13.888 73.455 14.0912 73.0156C14.2943 72.5762 14.3564 72.0847 14.2689 71.6086C13.9939 70.1953 13.9939 68.7422 14.2689 67.3289C14.3555 66.8518 14.292 66.3596 14.0872 65.9201C13.8823 65.4806 13.5462 65.1155 13.1251 64.875L12.422 64.4672L14.7658 60.4078L15.4689 60.8156C15.8902 61.0595 16.377 61.1662 16.8617 61.1209C17.3463 61.0755 17.8049 60.8804 18.1736 60.5625C19.2654 59.6299 20.52 58.9068 21.8744 58.4297C22.3308 58.2685 22.7261 57.97 23.006 57.575C23.2859 57.1801 23.4367 56.7083 23.4376 56.2242V55.4062H28.1251V56.2242C28.1251 56.7091 28.2754 57.182 28.5554 57.5778C28.8354 57.9737 29.2313 58.2729 29.6884 58.4344C31.0428 58.9115 32.2974 59.6346 33.3892 60.5672C33.7576 60.8822 34.2147 61.0753 34.6974 61.1198C35.1801 61.1643 35.6647 61.058 36.0845 60.8156L38.8173 59.2359C39.3513 58.9229 39.7397 58.4114 39.8979 57.8131C40.0561 57.2147 39.9712 56.5781 39.6617 56.0421C39.3523 55.5061 38.8434 55.1143 38.2461 54.9522C37.6488 54.79 37.0116 54.8707 36.4736 55.1766L35.0955 55.9734C34.3717 55.4735 33.6082 55.0338 32.8126 54.6586V53.0625C32.8126 52.4409 32.5657 51.8448 32.1262 51.4052C31.6866 50.9657 31.0905 50.7188 30.4689 50.7188H21.0939C20.4723 50.7188 19.8762 50.9657 19.4366 51.4052C18.9971 51.8448 18.7501 52.4409 18.7501 53.0625V54.6586C17.9546 55.0338 17.1911 55.4735 16.4673 55.9734L15.0892 55.1719C14.5509 54.8611 13.9112 54.7769 13.3108 54.9377C12.7104 55.0986 12.1985 55.4914 11.8876 56.0297L7.20015 64.1484C7.04479 64.4154 6.94374 64.7104 6.90278 65.0165C6.86182 65.3227 6.88178 65.6339 6.96149 65.9322C7.04121 66.2306 7.17912 66.5103 7.36729 66.7552C7.55546 67.0002 7.79018 67.2055 8.05796 67.3594L9.4314 68.1539C9.35624 69.0304 9.35624 69.9118 9.4314 70.7883L8.05796 71.5828C7.51966 71.8936 7.12688 72.4055 6.96601 73.0059C6.80514 73.6063 6.88936 74.2461 7.20015 74.7844Z" fill="white"/>
<path d="M18.75 69.4688C18.75 70.8594 19.1624 72.2188 19.935 73.3751C20.7076 74.5314 21.8057 75.4326 23.0905 75.9648C24.3753 76.497 25.789 76.6362 27.153 76.3649C28.5169 76.0936 29.7698 75.4239 30.7531 74.4406C31.7364 73.4573 32.4061 72.2044 32.6774 70.8405C32.9487 69.4765 32.8095 68.0628 32.2773 66.778C31.7451 65.4932 30.8439 64.3951 29.6876 63.6225C28.5313 62.8499 27.1719 62.4375 25.7812 62.4375C23.9164 62.4375 22.128 63.1783 20.8094 64.4969C19.4908 65.8155 18.75 67.6039 18.75 69.4688ZM28.125 69.4688C28.125 69.9323 27.9875 70.3854 27.73 70.7709C27.4725 71.1563 27.1064 71.4567 26.6782 71.6341C26.2499 71.8115 25.7787 71.8579 25.324 71.7675C24.8694 71.677 24.4517 71.4538 24.124 71.126C23.7962 70.7983 23.573 70.3806 23.4825 69.926C23.3921 69.4713 23.4385 69.0001 23.6159 68.5718C23.7933 68.1436 24.0937 67.7775 24.4791 67.52C24.8646 67.2625 25.3177 67.125 25.7812 67.125C26.4029 67.125 26.999 67.3719 27.4385 67.8115C27.8781 68.251 28.125 68.8471 28.125 69.4688Z" fill="white"/>
</svg>
