<svg width="183" height="189" viewBox="0 0 183 189" fill="none" xmlns="http://www.w3.org/2000/svg">
<circle cx="96.5" cy="72" r="55" fill="#FCC70E"/>
<g clip-path="url(#clip0_225_4148)">
<path d="M98.9375 137.438C98.9375 134.951 97.9498 132.567 96.1916 130.808C94.4335 129.05 92.0489 128.062 89.5625 128.062H59.3984L61.4375 111.938C61.449 111.844 61.449 111.75 61.4375 111.656C61.4375 98.6719 52.25 95.25 47.375 95.25C46.849 95.2306 46.3317 95.3888 45.9065 95.6991C45.4813 96.0095 45.173 96.454 45.0312 96.9609L35.6562 129.516C34.0814 132.621 31.6388 135.202 28.625 136.945V135.094C28.625 134.472 28.3781 133.876 27.9385 133.436C27.499 132.997 26.9029 132.75 26.2812 132.75H2.84375C2.22215 132.75 1.62601 132.997 1.18647 133.436C0.74693 133.876 0.5 134.472 0.5 135.094L0.5 186.656C0.5 187.278 0.74693 187.874 1.18647 188.314C1.62601 188.753 2.22215 189 2.84375 189H26.2812C26.9029 189 27.499 188.753 27.9385 188.314C28.3781 187.874 28.625 187.278 28.625 186.656V185.086L42.0547 189C42.2641 189.036 42.4781 189.036 42.6875 189H82.5312C84.3068 188.975 86.0388 188.446 87.5255 187.475C89.0123 186.504 90.1927 185.131 90.9293 183.515C91.666 181.899 91.9286 180.108 91.6866 178.348C91.4447 176.589 90.708 174.935 89.5625 173.578C90.7235 172.879 91.7191 171.937 92.481 170.817C93.2428 169.696 93.7527 168.424 93.9754 167.087C94.1982 165.75 94.1286 164.381 93.7714 163.074C93.4141 161.767 92.7778 160.553 91.9062 159.516C93.0672 158.817 94.0629 157.875 94.8247 156.754C95.5866 155.634 96.0964 154.361 96.3192 153.025C96.5419 151.688 96.4723 150.319 96.1151 149.012C95.7579 147.705 95.1216 146.491 94.25 145.453C95.6601 144.639 96.8339 143.472 97.6558 142.066C98.4778 140.661 98.9195 139.066 98.9375 137.438ZM23.9375 184.312H5.1875V137.438H23.9375V184.312ZM82.5312 184.312H43.0156L28.625 180.211V141.844C35.6562 140.227 39.8984 131.859 40.0859 131.461C40.1507 131.324 40.2055 131.183 40.25 131.039L49.0859 100.148C51.8281 100.758 56.7031 103.031 56.75 111.516L54.4062 130.125C54.3662 130.452 54.3956 130.784 54.4925 131.099C54.5895 131.414 54.7517 131.705 54.9688 131.953C55.191 132.206 55.4651 132.408 55.7725 132.546C56.0799 132.683 56.4133 132.753 56.75 132.75H89.5625C90.8057 132.75 91.998 133.244 92.8771 134.123C93.7561 135.002 94.25 136.194 94.25 137.438C94.25 138.681 93.7561 139.873 92.8771 140.752C91.998 141.631 90.8057 142.125 89.5625 142.125H77.8438C77.2221 142.125 76.626 142.372 76.1865 142.811C75.7469 143.251 75.5 143.847 75.5 144.469C75.5 145.09 75.7469 145.686 76.1865 146.126C76.626 146.566 77.2221 146.812 77.8438 146.812H87.2188C88.462 146.812 89.6542 147.306 90.5333 148.185C91.4124 149.065 91.9062 150.257 91.9062 151.5C91.9062 152.743 91.4124 153.935 90.5333 154.815C89.6542 155.694 88.462 156.188 87.2188 156.188H75.5C74.8784 156.188 74.2823 156.434 73.8427 156.874C73.4032 157.314 73.1562 157.91 73.1562 158.531C73.1562 159.153 73.4032 159.749 73.8427 160.189C74.2823 160.628 74.8784 160.875 75.5 160.875H84.875C86.1182 160.875 87.3105 161.369 88.1896 162.248C89.0686 163.127 89.5625 164.319 89.5625 165.562C89.5625 166.806 89.0686 167.998 88.1896 168.877C87.3105 169.756 86.1182 170.25 84.875 170.25H73.1562C72.5346 170.25 71.9385 170.497 71.499 170.936C71.0594 171.376 70.8125 171.972 70.8125 172.594C70.8125 173.215 71.0594 173.811 71.499 174.251C71.9385 174.691 72.5346 174.938 73.1562 174.938H82.5312C83.7745 174.938 84.9667 175.431 85.8458 176.31C86.7249 177.19 87.2188 178.382 87.2188 179.625C87.2188 180.868 86.7249 182.06 85.8458 182.94C84.9667 183.819 83.7745 184.312 82.5312 184.312ZM30.9688 74.1562H33.3125V76.5C33.3125 77.1216 33.5594 77.7177 33.999 78.1573C34.4385 78.5968 35.0346 78.8438 35.6562 78.8438C36.2779 78.8438 36.874 78.5968 37.3135 78.1573C37.7531 77.7177 38 77.1216 38 76.5V74.1562H40.3438C40.9654 74.1562 41.5615 73.9093 42.001 73.4698C42.4406 73.0302 42.6875 72.4341 42.6875 71.8125C42.6875 71.1909 42.4406 70.5948 42.001 70.1552C41.5615 69.7157 40.9654 69.4688 40.3438 69.4688H38V67.125C38 66.5034 37.7531 65.9073 37.3135 65.4677C36.874 65.0282 36.2779 64.7812 35.6562 64.7812C35.0346 64.7812 34.4385 65.0282 33.999 65.4677C33.5594 65.9073 33.3125 66.5034 33.3125 67.125V69.4688H30.9688C30.3471 69.4688 29.751 69.7157 29.3115 70.1552C28.8719 70.5948 28.625 71.1909 28.625 71.8125C28.625 72.4341 28.8719 73.0302 29.3115 73.4698C29.751 73.9093 30.3471 74.1562 30.9688 74.1562ZM127.062 156.188H124.719V153.844C124.719 153.222 124.472 152.626 124.032 152.186C123.593 151.747 122.997 151.5 122.375 151.5C121.753 151.5 121.157 151.747 120.718 152.186C120.278 152.626 120.031 153.222 120.031 153.844V156.188H117.688C117.066 156.188 116.47 156.434 116.03 156.874C115.591 157.314 115.344 157.91 115.344 158.531C115.344 159.153 115.591 159.749 116.03 160.189C116.47 160.628 117.066 160.875 117.688 160.875H120.031V163.219C120.031 163.84 120.278 164.436 120.718 164.876C121.157 165.316 121.753 165.562 122.375 165.562C122.997 165.562 123.593 165.316 124.032 164.876C124.472 164.436 124.719 163.84 124.719 163.219V160.875H127.062C127.684 160.875 128.28 160.628 128.72 160.189C129.159 159.749 129.406 159.153 129.406 158.531C129.406 157.91 129.159 157.314 128.72 156.874C128.28 156.434 127.684 156.188 127.062 156.188Z" fill="white"/>
<path d="M98.9375 39C85.2623 39 72.1472 44.4324 62.4773 54.1023C52.8075 63.7721 47.375 76.8872 47.375 90.5625C47.375 91.1841 47.6219 91.7802 48.0615 92.2197C48.501 92.6593 49.0971 92.9062 49.7188 92.9062C50.3404 92.9062 50.9365 92.6593 51.376 92.2197C51.8156 91.7802 52.0625 91.1841 52.0625 90.5625C52.0653 81.6744 54.595 72.9702 59.3565 65.4651C64.1181 57.9601 70.9153 51.9634 78.9554 48.1745C86.9955 44.3857 95.9471 42.9607 104.766 44.0659C113.585 45.1711 121.909 48.7609 128.765 54.4166C135.622 60.0723 140.729 67.5608 143.491 76.0087C146.254 84.4567 146.557 93.5159 144.367 102.13C142.176 110.744 137.582 118.557 131.119 124.659C124.657 130.762 116.593 134.901 107.867 136.594C107.246 136.653 106.673 136.956 106.275 137.438C105.877 137.919 105.687 138.539 105.746 139.16C105.805 139.782 106.109 140.354 106.59 140.752C107.071 141.15 107.691 141.34 108.312 141.281H108.758C121.464 138.958 132.835 131.951 140.622 121.646C148.409 111.341 152.045 98.4888 150.81 85.6316C149.576 72.7744 143.561 60.8487 133.955 52.2136C124.35 43.5786 111.853 38.8631 98.9375 39Z" fill="white"/>
<path d="M120.031 99.9375C120.031 94.9647 118.056 90.1956 114.539 86.6792C111.023 83.1629 106.254 81.1875 101.281 81.1875H96.5938C95.3505 81.1875 94.1583 80.6936 93.2792 79.8146C92.4001 78.9355 91.9062 77.7432 91.9062 76.5C91.9062 75.2568 92.4001 74.0645 93.2792 73.1854C94.1583 72.3064 95.3505 71.8125 96.5938 71.8125H113C114.865 71.8125 116.653 71.0717 117.972 69.7531C119.29 68.4345 120.031 66.6461 120.031 64.7812C120.031 62.9164 119.29 61.128 117.972 59.8094C116.653 58.4908 114.865 57.75 113 57.75H105.969V50.7188C105.969 50.0971 105.722 49.501 105.282 49.0615C104.843 48.6219 104.247 48.375 103.625 48.375H94.25C93.6284 48.375 93.0323 48.6219 92.5927 49.0615C92.1532 49.501 91.9062 50.0971 91.9062 50.7188V58.3594C87.5 59.5109 83.6635 62.2269 81.1131 66C78.5627 69.7732 77.4728 74.3456 78.0468 78.8635C78.6209 83.3815 80.8197 87.536 84.2327 90.5514C87.6457 93.5669 92.0395 95.237 96.5938 95.25H101.281C102.524 95.25 103.717 95.7439 104.596 96.6229C105.475 97.502 105.969 98.6943 105.969 99.9375C105.969 101.181 105.475 102.373 104.596 103.252C103.717 104.131 102.524 104.625 101.281 104.625H84.875C83.0102 104.625 81.2218 105.366 79.9032 106.684C78.5845 108.003 77.8438 109.791 77.8438 111.656C77.8438 113.521 78.5845 115.309 79.9032 116.628C81.2218 117.947 83.0102 118.688 84.875 118.688H91.9062V125.719C91.9062 126.34 92.1532 126.936 92.5927 127.376C93.0323 127.816 93.6284 128.062 94.25 128.062H103.625C104.247 128.062 104.843 127.816 105.282 127.376C105.722 126.936 105.969 126.34 105.969 125.719V118.078C109.991 117.04 113.555 114.694 116.1 111.411C118.645 108.128 120.028 104.092 120.031 99.9375ZM103.297 113.836C102.734 113.916 102.219 114.197 101.848 114.628C101.477 115.06 101.276 115.611 101.281 116.18V123.375H96.5938V116.344C96.5938 115.722 96.3468 115.126 95.9073 114.686C95.4677 114.247 94.8716 114 94.25 114H84.875C84.2534 114 83.6573 113.753 83.2177 113.314C82.7782 112.874 82.5312 112.278 82.5312 111.656C82.5312 111.035 82.7782 110.439 83.2177 109.999C83.6573 109.559 84.2534 109.312 84.875 109.312H101.281C103.768 109.312 106.152 108.325 107.91 106.567C109.669 104.808 110.656 102.424 110.656 99.9375C110.656 97.4511 109.669 95.0665 107.91 93.3084C106.152 91.5502 103.768 90.5625 101.281 90.5625H96.5938C93.0605 90.5317 89.6683 89.1719 87.0921 86.7536C84.5159 84.3354 82.9444 81.0359 82.6903 77.5116C82.4363 73.9874 83.5183 70.4966 85.721 67.7339C87.9238 64.9711 91.0858 63.1388 94.5781 62.6016C95.1413 62.522 95.6563 62.2403 96.0271 61.8091C96.398 61.3779 96.5993 60.8265 96.5938 60.2578V53.0625H101.281V60.0938C101.281 60.7154 101.528 61.3115 101.968 61.751C102.407 62.1906 103.003 62.4375 103.625 62.4375H113C113.622 62.4375 114.218 62.6844 114.657 63.124C115.097 63.5635 115.344 64.1596 115.344 64.7812C115.344 65.4029 115.097 65.999 114.657 66.4385C114.218 66.8781 113.622 67.125 113 67.125H96.5938C94.1073 67.125 91.7228 68.1127 89.9646 69.8709C88.2065 71.629 87.2188 74.0136 87.2188 76.5C87.2188 78.9864 88.2065 81.371 89.9646 83.1291C91.7228 84.8873 94.1073 85.875 96.5938 85.875H101.281C104.815 85.9058 108.207 87.2656 110.783 89.6839C113.359 92.1021 114.931 95.4016 115.185 98.9259C115.439 102.45 114.357 105.941 112.154 108.704C109.951 111.466 106.789 113.299 103.297 113.836Z" fill="white"/>
</g>
<defs>
<clipPath id="clip0_225_4148">
<rect width="150" height="150" fill="white" transform="translate(0.5 39)"/>
</clipPath>
</defs>
</svg>
