<svg width="183" height="189" viewBox="0 0 183 189" fill="none" xmlns="http://www.w3.org/2000/svg">
<path d="M135.937 118.687H127.31C126.322 115.07 124.879 111.593 123.014 108.34L129.122 102.232C129.561 101.793 129.808 101.196 129.808 100.575C129.808 99.9535 129.561 99.3575 129.122 98.918L117.83 87.6281C117.613 87.4043 117.355 87.2257 117.069 87.1029C116.783 86.98 116.475 86.9154 116.164 86.9127C115.853 86.91 115.544 86.9693 115.256 87.0871C114.968 87.205 114.706 87.379 114.486 87.5991C114.266 87.8191 114.092 88.0808 113.974 88.3689C113.857 88.6569 113.797 88.9655 113.8 89.2767C113.803 89.5879 113.867 89.8955 113.99 90.1814C114.113 90.4674 114.292 90.726 114.515 90.9422L124.151 100.575L118.406 106.322C118.031 106.697 117.794 107.189 117.734 107.716C117.674 108.244 117.796 108.776 118.078 109.226C120.47 113.013 122.2 117.181 123.192 121.549C123.31 122.068 123.6 122.531 124.016 122.863C124.431 123.195 124.948 123.375 125.48 123.375H133.594V137.437H125.48C124.948 137.437 124.431 137.618 124.016 137.949C123.6 138.281 123.31 138.745 123.192 139.263C122.2 143.632 120.47 147.799 118.078 151.587C117.796 152.036 117.674 152.569 117.734 153.096C117.794 153.624 118.031 154.115 118.406 154.491L124.151 160.237L114.206 170.182L108.459 164.437C108.084 164.061 107.592 163.824 107.064 163.764C106.535 163.705 106.003 163.826 105.553 164.109C101.766 166.503 97.5983 168.233 93.2295 169.226C92.7113 169.344 92.2485 169.634 91.9171 170.05C91.5858 170.466 91.4056 170.982 91.4061 171.513V181.969C91.4061 182.59 91.653 183.186 92.0926 183.626C92.5321 184.066 93.1283 184.312 93.7499 184.312C94.3715 184.312 94.9676 184.066 95.4071 183.626C95.8467 183.186 96.0936 182.59 96.0936 181.969V173.341C99.7114 172.355 103.189 170.911 106.441 169.045L112.549 175.153C112.989 175.592 113.585 175.839 114.206 175.839C114.828 175.839 115.424 175.592 115.863 175.153L129.122 161.895C129.561 161.455 129.808 160.859 129.808 160.237C129.808 159.616 129.561 159.02 129.122 158.58L123.014 152.473C124.879 149.219 126.322 145.742 127.31 142.125H135.937C136.559 142.125 137.155 141.878 137.595 141.439C138.034 140.999 138.281 140.403 138.281 139.781V121.031C138.281 120.41 138.034 119.813 137.595 119.374C137.155 118.934 136.559 118.687 135.937 118.687ZM84.3749 179.625H77.3436V171.513C77.3441 170.982 77.1639 170.466 76.8326 170.05C76.5013 169.634 76.0385 169.344 75.5202 169.226C71.1514 168.233 66.9839 166.503 63.1967 164.109C62.7469 163.826 62.2142 163.705 61.6861 163.764C61.1581 163.824 60.666 164.061 60.2905 164.437L54.5436 170.182L44.5991 160.237L50.3436 154.491C50.7191 154.115 50.9561 153.624 51.0157 153.096C51.0753 152.569 50.954 152.036 50.6717 151.587C48.2795 147.799 46.5493 143.632 45.5553 139.263C45.4379 138.745 45.1477 138.282 44.7325 137.95C44.3173 137.618 43.8016 137.438 43.2702 137.437H35.1561V123.375H43.2702C43.8016 123.375 44.3173 123.194 44.7325 122.862C45.1477 122.531 45.4379 122.068 45.5553 121.549C46.5493 117.181 48.2795 113.014 50.6717 109.226C50.954 108.776 51.0753 108.244 51.0157 107.716C50.9561 107.189 50.7191 106.697 50.3436 106.322L44.5991 100.575L54.2085 90.9656C54.4323 90.7494 54.6109 90.4908 54.7337 90.2048C54.8565 89.9189 54.9212 89.6114 54.9239 89.3002C54.9266 88.989 54.8673 88.6803 54.7494 88.3923C54.6316 88.1042 54.4576 87.8426 54.2375 87.6225C54.0174 87.4024 53.7558 87.2284 53.4677 87.1106C53.1797 86.9927 52.8711 86.9334 52.5599 86.9361C52.2487 86.9388 51.9411 87.0035 51.6552 87.1263C51.3692 87.2492 51.1106 87.4277 50.8944 87.6516L39.6444 98.9133C39.205 99.3528 38.9582 99.9488 38.9582 100.57C38.9582 101.192 39.205 101.788 39.6444 102.227L45.7522 108.335C43.8813 111.589 42.4322 115.068 41.4397 118.687H32.8124C32.1908 118.687 31.5946 118.934 31.1551 119.374C30.7155 119.813 30.4686 120.41 30.4686 121.031V139.781C30.4686 140.403 30.7155 140.999 31.1551 141.439C31.5946 141.878 32.1908 142.125 32.8124 142.125H41.4397C42.4274 145.742 43.871 149.219 45.7358 152.473L40.1694 158.039C40.0431 155.728 39.0647 153.546 37.4233 151.914C35.782 150.283 33.5941 149.317 31.2825 149.205C28.9709 149.092 26.6995 149.84 24.9073 151.304C23.115 152.769 21.9292 154.845 21.5787 157.133C21.2283 159.421 21.7382 161.757 23.0099 163.691C24.2816 165.625 26.2249 167.018 28.4643 167.603C30.7036 168.187 33.0801 167.921 35.1347 166.855C37.1892 165.79 38.7759 164.001 39.5881 161.834C39.6046 161.852 39.6116 161.876 39.628 161.895L48.2811 170.536L46.7788 173.137L43.5491 171.262C43.1443 171.029 42.679 170.922 42.2129 170.955C41.7469 170.988 41.3013 171.16 40.9335 171.448C39.7369 172.385 38.4156 173.151 37.0077 173.723C36.5749 173.898 36.2042 174.199 35.9433 174.586C35.6823 174.973 35.5428 175.429 35.5428 175.896V179.625H26.1678V175.905C26.1678 175.439 26.0284 174.982 25.7674 174.595C25.5064 174.208 25.1358 173.908 24.703 173.733C23.2943 173.159 21.9723 172.392 20.7749 171.455C20.407 171.167 19.9617 170.997 19.4961 170.964C19.0306 170.932 18.5659 171.039 18.1616 171.272L14.9319 173.147L10.2444 165.028L13.4764 163.153C13.8786 162.92 14.2026 162.573 14.4071 162.156C14.6116 161.739 14.6874 161.27 14.6249 160.809C14.3906 159.304 14.3906 157.772 14.6249 156.267C14.6874 155.807 14.6116 155.338 14.4071 154.921C14.2026 154.503 13.8786 154.156 13.4764 153.923L10.2444 152.048L14.9319 143.93L18.1616 145.805C18.5659 146.038 19.0306 146.145 19.4961 146.112C19.9617 146.08 20.407 145.909 20.7749 145.622C21.9723 144.684 23.2943 143.917 24.703 143.344C25.1358 143.169 25.5064 142.868 25.7674 142.481C26.0284 142.094 26.1678 141.638 26.1678 141.171V135.094C26.1678 134.472 25.9209 133.876 25.4814 133.436C25.0418 132.997 24.4457 132.75 23.8241 132.75C23.2025 132.75 22.6063 132.997 22.1668 133.436C21.7273 133.876 21.4803 134.472 21.4803 135.094V139.645C20.6908 140.039 19.9268 140.482 19.1928 140.972L15.2342 138.694C14.6959 138.383 14.0562 138.299 13.4558 138.46C12.8554 138.62 12.3435 139.013 12.0327 139.552L5.00142 151.739C4.6936 152.277 4.61104 152.914 4.77178 153.512C4.93251 154.11 5.32348 154.62 5.85924 154.931L9.80142 157.207C9.73426 158.089 9.73426 158.974 9.80142 159.855L5.85924 162.131C5.32221 162.442 4.93034 162.953 4.76954 163.552C4.60873 164.152 4.69212 164.79 5.00142 165.328L12.0327 177.516C12.3435 178.054 12.8554 178.447 13.4558 178.608C14.0562 178.768 14.6959 178.684 15.2342 178.373L19.1811 176.095C19.9151 176.585 20.6791 177.028 21.4686 177.422V181.969C21.4686 182.59 21.7155 183.186 22.1551 183.626C22.5946 184.066 23.1908 184.312 23.8124 184.312H37.8749C38.4965 184.312 39.0926 184.066 39.5321 183.626C39.9717 183.186 40.2186 182.59 40.2186 181.969V177.417C41.0092 177.024 41.774 176.581 42.5085 176.091L46.453 178.369C46.7196 178.523 47.0141 178.623 47.3195 178.664C47.6248 178.704 47.9352 178.684 48.2328 178.604C48.5303 178.524 48.8093 178.387 49.0536 178.199C49.298 178.012 49.503 177.778 49.6569 177.511L51.703 173.967L52.8866 175.153C53.3261 175.592 53.9221 175.839 54.5436 175.839C55.1651 175.839 55.7611 175.592 56.2006 175.153L62.3085 169.045C65.561 170.911 69.0383 172.355 72.6561 173.341V181.969C72.6561 182.59 72.903 183.186 73.3426 183.626C73.7821 184.066 74.3783 184.312 74.9999 184.312H84.3749C84.9965 184.312 85.5926 184.066 86.0321 183.626C86.4717 183.186 86.7186 182.59 86.7186 181.969C86.7186 181.347 86.4717 180.751 86.0321 180.311C85.5926 179.872 84.9965 179.625 84.3749 179.625ZM30.8436 163.219C29.9165 163.219 29.0102 162.944 28.2394 162.429C27.4685 161.914 26.8677 161.182 26.5129 160.325C26.1581 159.469 26.0653 158.526 26.2462 157.617C26.427 156.707 26.8735 155.872 27.5291 155.217C28.1846 154.561 29.0198 154.115 29.9291 153.934C30.8384 153.753 31.7809 153.846 32.6374 154.201C33.494 154.555 34.2261 155.156 34.7411 155.927C35.2562 156.698 35.5311 157.604 35.5311 158.531C35.5311 159.774 35.0373 160.967 34.1582 161.846C33.2791 162.725 32.0868 163.219 30.8436 163.219Z" fill="white"/>
<path d="M128.906 55.4062C126.265 55.4128 123.664 56.0552 121.323 57.279C118.982 58.5029 116.971 60.2722 115.458 62.4375H110.156V60.0938C110.162 58.7338 109.772 57.4016 109.033 56.2599C108.295 55.1181 107.239 54.2162 105.996 53.6643C104.754 53.1125 103.377 52.9346 102.034 53.1523C100.692 53.3701 99.4422 53.9741 98.4375 54.8906C97.1596 53.7149 95.4865 53.0624 93.75 53.0624C92.0135 53.0624 90.3404 53.7149 89.0625 54.8906C87.7846 53.7149 86.1115 53.0624 84.375 53.0624C82.6385 53.0624 80.9654 53.7149 79.6875 54.8906C78.6828 53.9741 77.4329 53.3701 76.0906 53.1523C74.7482 52.9346 73.3715 53.1125 72.1286 53.6643C70.8856 54.2162 69.8304 55.1181 69.0916 56.2599C68.3529 57.4016 67.9627 58.7338 67.9688 60.0938V61.7109C66.9856 60.9316 65.8217 60.413 64.5848 60.2032C63.3479 59.9934 62.0781 60.0993 60.893 60.5109C59.8038 60.9079 58.8307 61.57 58.0617 62.4375H46.7086C46.1399 58.5347 44.1864 54.9667 41.2049 52.385C38.2234 49.8032 34.4127 48.3799 30.4688 48.375H21.0938C16.7441 48.38 12.574 50.1101 9.49826 53.1858C6.42257 56.2615 4.69246 60.4316 4.6875 64.7812C4.6875 65.4029 4.93443 65.999 5.37397 66.4385C5.81351 66.8781 6.40965 67.125 7.03125 67.125H21.0938C21.7154 67.125 22.3115 66.8781 22.751 66.4385C23.1906 65.999 23.4375 65.4029 23.4375 64.7812C23.4375 64.1596 23.1906 63.5635 22.751 63.124C22.3115 62.6844 21.7154 62.4375 21.0938 62.4375H9.60938C10.1529 59.7922 11.5921 57.4152 13.6841 55.7074C15.7762 53.9996 18.3932 53.0655 21.0938 53.0625H30.4688C33.5756 53.0662 36.5542 54.3021 38.751 56.499C40.9479 58.6958 42.1838 61.6744 42.1875 64.7812C42.1875 65.4029 42.4344 65.999 42.874 66.4385C43.3135 66.8781 43.9096 67.125 44.5312 67.125H56.25V76.5H44.5312C43.9096 76.5 43.3135 76.7469 42.874 77.1865C42.4344 77.626 42.1875 78.2221 42.1875 78.8438C42.1838 81.9506 40.9479 84.9292 38.751 87.126C36.5542 89.3229 33.5756 90.5588 30.4688 90.5625H21.0938C18.3932 90.5595 15.7762 89.6254 13.6841 87.9176C11.5921 86.2098 10.1529 83.8328 9.60938 81.1875H30.4688C31.0904 81.1875 31.6865 80.9406 32.126 80.501C32.5656 80.0615 32.8125 79.4654 32.8125 78.8438V64.7812C32.8125 64.1596 32.5656 63.5635 32.126 63.124C31.6865 62.6844 31.0904 62.4375 30.4688 62.4375C29.8471 62.4375 29.251 62.6844 28.8115 63.124C28.3719 63.5635 28.125 64.1596 28.125 64.7812V76.5H7.03125C6.40965 76.5 5.81351 76.7469 5.37397 77.1865C4.93443 77.626 4.6875 78.2221 4.6875 78.8438C4.69246 83.1934 6.42257 87.3635 9.49826 90.4392C12.574 93.5149 16.7441 95.245 21.0938 95.25H30.4688C34.4127 95.2451 38.2234 93.8218 41.2049 91.24C44.1864 88.6583 46.1399 85.0903 46.7086 81.1875H56.25V83.5312C56.2497 83.8948 56.3339 84.2535 56.4961 84.5789L65.625 102.834V109.498C62.2148 112.554 59.603 116.397 58.0171 120.693C56.4311 124.989 55.9189 129.608 56.5251 134.147C57.1313 138.686 58.8375 143.008 61.4952 146.737C64.153 150.466 67.6817 153.49 71.7745 155.544C75.8672 157.598 80.4 158.621 84.9783 158.524C89.5566 158.427 94.0419 157.212 98.0437 154.986C102.046 152.76 105.443 149.59 107.94 145.751C110.437 141.912 111.958 137.522 112.371 132.961C112.4 132.654 112.368 132.344 112.277 132.049C112.186 131.754 112.037 131.48 111.84 131.242C111.643 131.005 111.401 130.809 111.127 130.665C110.854 130.522 110.555 130.434 110.248 130.406C109.63 130.358 109.018 130.553 108.542 130.95C108.067 131.346 107.765 131.913 107.702 132.53C107.323 136.875 105.737 141.028 103.125 144.52V116.515C104.829 118.763 106.105 121.305 106.889 124.015C107.061 124.61 107.462 125.113 108.004 125.413C108.546 125.713 109.184 125.787 109.78 125.618C110.376 125.449 110.881 125.051 111.184 124.51C111.487 123.97 111.564 123.332 111.398 122.735C109.955 117.618 107.086 113.018 103.125 109.472V103.252L103.985 102.391C107.736 98.6472 109.934 93.6246 110.14 88.3289C110.152 88.0211 110.104 87.7139 109.997 87.4249C109.891 87.1358 109.729 86.8705 109.52 86.6442C109.098 86.187 108.511 85.9163 107.89 85.8914C107.582 85.8791 107.275 85.9275 106.986 86.0339C106.697 86.1404 106.431 86.3027 106.205 86.5116C105.748 86.9335 105.477 87.5198 105.452 88.1414C105.292 92.2589 103.583 96.164 100.666 99.075L99.1195 100.622C98.9024 100.84 98.7305 101.099 98.6134 101.384C98.4964 101.668 98.4366 101.973 98.4375 102.281V149.198C93.9241 152.583 88.3411 154.227 82.7135 153.827C77.086 153.427 71.7915 151.011 67.8022 147.021C63.8129 143.032 61.3964 137.737 60.9965 132.11C60.5965 126.482 62.2399 120.899 65.625 116.386V136.237C65.625 136.859 65.8719 137.455 66.3115 137.895C66.751 138.334 67.3471 138.581 67.9688 138.581C68.5904 138.581 69.1865 138.334 69.626 137.895C70.0656 137.455 70.3125 136.859 70.3125 136.237V102.281C70.3128 101.918 70.2286 101.559 70.0664 101.234L60.9375 82.9781V67.125C60.9372 66.6429 61.0856 66.1725 61.3624 65.7778C61.6392 65.3832 62.031 65.0834 62.4844 64.9195C63.7031 64.4813 65.1094 65.0906 66.3539 66.5906C67.425 67.931 67.9959 69.6024 67.9688 71.318V81.1875C67.9688 81.8091 68.2157 82.4052 68.6552 82.8448C69.0948 83.2843 69.6909 83.5312 70.3125 83.5312C72.7989 83.5312 75.1835 84.519 76.9416 86.2771C78.6998 88.0353 79.6875 90.4198 79.6875 92.9062V102.281C79.6875 102.903 79.9344 103.499 80.374 103.939C80.8135 104.378 81.4096 104.625 82.0312 104.625C82.6529 104.625 83.249 104.378 83.6885 103.939C84.1281 103.499 84.375 102.903 84.375 102.281V92.9062C84.3751 90.8324 83.9158 88.7843 83.0299 86.9092C82.144 85.0341 80.8536 83.3786 79.2516 82.0617C79.4016 81.9469 79.5469 81.8273 79.6875 81.7031C80.9654 82.8788 82.6385 83.5313 84.375 83.5313C86.1115 83.5313 87.7846 82.8788 89.0625 81.7031C90.3404 82.8788 92.0135 83.5313 93.75 83.5313C95.4865 83.5313 97.1596 82.8788 98.4375 81.7031C99.4422 82.6196 100.692 83.2236 102.034 83.4414C103.377 83.6592 104.754 83.4813 105.996 82.9294C107.239 82.3776 108.295 81.4757 109.033 80.3339C109.772 79.1921 110.162 77.8599 110.156 76.5V67.125H116.742C117.153 67.1246 117.557 67.0161 117.913 66.8104C118.269 66.6047 118.564 66.3091 118.77 65.9531C120.059 63.719 122.05 61.973 124.434 60.9858C126.817 59.9986 129.46 59.8254 131.951 60.4931C134.443 61.1607 136.645 62.632 138.215 64.6786C139.786 66.7252 140.637 69.2328 140.637 71.8125C140.637 74.3922 139.786 76.8998 138.215 78.9464C136.645 80.993 134.443 82.4643 131.951 83.1319C129.46 83.7996 126.817 83.6264 124.434 82.6392C122.05 81.652 120.059 79.906 118.77 77.6719C118.449 77.1537 117.939 76.7807 117.348 76.632C116.757 76.4834 116.132 76.5707 115.604 76.8755C115.076 77.1803 114.688 77.6787 114.522 78.2649C114.355 78.8511 114.424 79.479 114.713 80.0156C116.153 82.5102 118.224 84.5817 120.719 86.0216C123.214 87.4616 126.044 88.2194 128.924 88.2187C131.805 88.2181 134.634 87.4591 137.129 86.018C139.623 84.5769 141.693 82.5046 143.133 80.0093C144.572 77.5141 145.329 74.684 145.327 71.8034C145.325 68.9229 144.565 66.0936 143.124 63.6C141.682 61.1063 139.609 59.0363 137.113 57.5979C134.617 56.1596 131.787 55.4037 128.906 55.4062ZM72.6562 60.0938C72.6562 59.4721 72.9032 58.876 73.3427 58.4365C73.7823 57.9969 74.3784 57.75 75 57.75C75.6216 57.75 76.2177 57.9969 76.6573 58.4365C77.0968 58.876 77.3438 59.4721 77.3438 60.0938V76.5C77.3438 77.1216 77.0968 77.7177 76.6573 78.1573C76.2177 78.5968 75.6216 78.8438 75 78.8438C74.3784 78.8438 73.7823 78.5968 73.3427 78.1573C72.9032 77.7177 72.6562 77.1216 72.6562 76.5V60.0938ZM84.375 78.8438C83.7534 78.8438 83.1573 78.5968 82.7177 78.1573C82.2782 77.7177 82.0312 77.1216 82.0312 76.5V60.0938C82.0312 59.4721 82.2782 58.876 82.7177 58.4365C83.1573 57.9969 83.7534 57.75 84.375 57.75C84.9966 57.75 85.5927 57.9969 86.0323 58.4365C86.4718 58.876 86.7188 59.4721 86.7188 60.0938V76.5C86.7188 77.1216 86.4718 77.7177 86.0323 78.1573C85.5927 78.5968 84.9966 78.8438 84.375 78.8438ZM93.75 78.8438C93.1284 78.8438 92.5323 78.5968 92.0927 78.1573C91.6532 77.7177 91.4062 77.1216 91.4062 76.5V60.0938C91.4062 59.4721 91.6532 58.876 92.0927 58.4365C92.5323 57.9969 93.1284 57.75 93.75 57.75C94.3716 57.75 94.9677 57.9969 95.4073 58.4365C95.8468 58.876 96.0938 59.4721 96.0938 60.0938V76.5C96.0938 77.1216 95.8468 77.7177 95.4073 78.1573C94.9677 78.5968 94.3716 78.8438 93.75 78.8438ZM105.469 76.5C105.469 77.1216 105.222 77.7177 104.782 78.1573C104.343 78.5968 103.747 78.8438 103.125 78.8438C102.503 78.8438 101.907 78.5968 101.468 78.1573C101.028 77.7177 100.781 77.1216 100.781 76.5V60.0938C100.781 59.4721 101.028 58.876 101.468 58.4365C101.907 57.9969 102.503 57.75 103.125 57.75C103.747 57.75 104.343 57.9969 104.782 58.4365C105.222 58.876 105.469 59.4721 105.469 60.0938V76.5Z" fill="white"/>
<path d="M128.906 69.4688C129.528 69.4688 130.124 69.2218 130.564 68.7823C131.003 68.3427 131.25 67.7466 131.25 67.125C131.25 66.5034 131.003 65.9073 130.564 65.4677C130.124 65.0282 129.528 64.7812 128.906 64.7812C127.516 64.7812 126.156 65.1936 125 65.9662C123.844 66.7388 122.942 67.837 122.41 69.1218C121.878 70.4065 121.739 71.8203 122.01 73.1842C122.281 74.5482 122.951 75.801 123.934 76.7843C124.918 77.7677 126.171 78.4373 127.535 78.7086C128.898 78.9799 130.312 78.8407 131.597 78.3085C132.882 77.7764 133.98 76.8751 134.753 75.7189C135.525 74.5626 135.938 73.2031 135.938 71.8125C135.938 71.1909 135.691 70.5948 135.251 70.1552C134.811 69.7157 134.215 69.4688 133.594 69.4688C132.972 69.4688 132.376 69.7157 131.936 70.1552C131.497 70.5948 131.25 71.1909 131.25 71.8125C131.25 72.2761 131.113 72.7292 130.855 73.1146C130.597 73.5 130.231 73.8005 129.803 73.9778C129.375 74.1552 128.904 74.2016 128.449 74.1112C127.994 74.0208 127.577 73.7976 127.249 73.4698C126.921 73.142 126.698 72.7244 126.608 72.2697C126.517 71.8151 126.564 71.3438 126.741 70.9156C126.918 70.4873 127.219 70.1213 127.604 69.8637C127.99 69.6062 128.443 69.4688 128.906 69.4688Z" fill="white"/>
</svg>
