<svg width="142" height="137" viewBox="0 0 142 137" fill="none" xmlns="http://www.w3.org/2000/svg">
<path d="M131.937 70.6875H123.31C122.322 67.0701 120.879 63.593 119.014 60.3398L125.122 54.232C125.561 53.7925 125.808 53.1965 125.808 52.575C125.808 51.9535 125.561 51.3575 125.122 50.918L113.83 39.6281C113.613 39.4043 113.355 39.2257 113.069 39.1029C112.783 38.98 112.475 38.9154 112.164 38.9127C111.853 38.91 111.544 38.9693 111.256 39.0871C110.968 39.205 110.706 39.379 110.486 39.5991C110.266 39.8191 110.092 40.0808 109.974 40.3689C109.857 40.6569 109.797 40.9655 109.8 41.2767C109.803 41.5879 109.867 41.8955 109.99 42.1814C110.113 42.4674 110.292 42.726 110.515 42.9422L120.151 52.575L114.406 58.3219C114.031 58.6972 113.794 59.1889 113.734 59.7164C113.674 60.244 113.796 60.7761 114.078 61.2258C116.47 65.0132 118.2 69.1807 119.192 73.5492C119.31 74.0679 119.6 74.5313 120.016 74.863C120.431 75.1948 120.948 75.3754 121.48 75.375H129.594V89.4375H121.48C120.948 89.4371 120.431 89.6176 120.016 89.9494C119.6 90.2812 119.31 90.7445 119.192 91.2633C118.2 95.6318 116.47 99.7993 114.078 103.587C113.796 104.036 113.674 104.569 113.734 105.096C113.794 105.624 114.031 106.115 114.406 106.491L120.151 112.237L110.206 122.182L104.459 116.437C104.084 116.061 103.592 115.824 103.064 115.764C102.535 115.705 102.003 115.826 101.553 116.109C97.7658 118.503 93.5983 120.233 89.2295 121.226C88.7113 121.344 88.2485 121.634 87.9171 122.05C87.5858 122.466 87.4056 122.982 87.4061 123.513V133.969C87.4061 134.59 87.653 135.186 88.0926 135.626C88.5321 136.066 89.1283 136.312 89.7499 136.312C90.3715 136.312 90.9676 136.066 91.4071 135.626C91.8467 135.186 92.0936 134.59 92.0936 133.969V125.341C95.7114 124.355 99.1887 122.911 102.441 121.045L108.549 127.153C108.989 127.592 109.585 127.839 110.206 127.839C110.828 127.839 111.424 127.592 111.863 127.153L125.122 113.895C125.561 113.455 125.808 112.859 125.808 112.237C125.808 111.616 125.561 111.02 125.122 110.58L119.014 104.473C120.879 101.219 122.322 97.7424 123.31 94.125H131.937C132.559 94.125 133.155 93.8781 133.595 93.4385C134.034 92.999 134.281 92.4028 134.281 91.7812V73.0312C134.281 72.4096 134.034 71.8135 133.595 71.374C133.155 70.9344 132.559 70.6875 131.937 70.6875ZM80.3749 131.625H73.3436V123.513C73.3441 122.982 73.1639 122.466 72.8326 122.05C72.5013 121.634 72.0385 121.344 71.5202 121.226C67.1514 120.233 62.9839 118.503 59.1967 116.109C58.7469 115.826 58.2142 115.705 57.6861 115.764C57.1581 115.824 56.666 116.061 56.2905 116.437L50.5436 122.182L40.5991 112.237L46.3436 106.491C46.7191 106.115 46.9561 105.624 47.0157 105.096C47.0753 104.569 46.954 104.036 46.6717 103.587C44.2795 99.7989 42.5493 95.6316 41.5553 91.2633C41.4379 90.7449 41.1477 90.2819 40.7325 89.9502C40.3173 89.6184 39.8016 89.4376 39.2702 89.4375H31.1561V75.375H39.2702C39.8016 75.3748 40.3173 75.1941 40.7325 74.8623C41.1477 74.5306 41.4379 74.0675 41.5553 73.5492C42.5493 69.1809 44.2795 65.0136 46.6717 61.2258C46.954 60.7761 47.0753 60.244 47.0157 59.7164C46.9561 59.1889 46.7191 58.6972 46.3436 58.3219L40.5991 52.575L50.2085 42.9656C50.4323 42.7494 50.6109 42.4908 50.7337 42.2048C50.8565 41.9189 50.9212 41.6114 50.9239 41.3002C50.9266 40.989 50.8673 40.6803 50.7494 40.3923C50.6316 40.1042 50.4576 39.8426 50.2375 39.6225C50.0174 39.4024 49.7558 39.2284 49.4677 39.1106C49.1797 38.9927 48.8711 38.9334 48.5599 38.9361C48.2487 38.9388 47.9411 39.0035 47.6552 39.1263C47.3692 39.2492 47.1106 39.4277 46.8944 39.6516L35.6444 50.9133C35.205 51.3528 34.9582 51.9488 34.9582 52.5703C34.9582 53.1918 35.205 53.7878 35.6444 54.2273L41.7522 60.3352C39.8813 63.589 38.4322 67.0677 37.4397 70.6875H28.8124C28.1908 70.6875 27.5946 70.9344 27.1551 71.374C26.7155 71.8135 26.4686 72.4096 26.4686 73.0312V91.7812C26.4686 92.4028 26.7155 92.999 27.1551 93.4385C27.5946 93.8781 28.1908 94.125 28.8124 94.125H37.4397C38.4274 97.7424 39.871 101.219 41.7358 104.473L36.1694 110.039C36.0431 107.728 35.0647 105.546 33.4233 103.914C31.782 102.283 29.5941 101.317 27.2825 101.205C24.9709 101.092 22.6995 101.84 20.9073 103.304C19.115 104.769 17.9292 106.845 17.5787 109.133C17.2283 111.421 17.7382 113.757 19.0099 115.691C20.2816 117.625 22.2249 119.018 24.4643 119.603C26.7036 120.187 29.0801 119.921 31.1347 118.855C33.1892 117.79 34.7759 116.001 35.5881 113.834C35.6046 113.852 35.6116 113.876 35.628 113.895L44.2811 122.536L42.7788 125.137L39.5491 123.262C39.1443 123.029 38.679 122.922 38.2129 122.955C37.7469 122.988 37.3013 123.16 36.9335 123.448C35.7369 124.385 34.4156 125.151 33.0077 125.723C32.5749 125.898 32.2042 126.199 31.9433 126.586C31.6823 126.973 31.5428 127.429 31.5428 127.896V131.625H22.1678V127.905C22.1678 127.439 22.0284 126.982 21.7674 126.595C21.5064 126.208 21.1358 125.908 20.703 125.733C19.2943 125.159 17.9723 124.392 16.7749 123.455C16.407 123.167 15.9617 122.997 15.4961 122.964C15.0306 122.932 14.5659 123.039 14.1616 123.272L10.9319 125.147L6.24439 117.028L9.47642 115.153C9.87865 114.92 10.2026 114.573 10.4071 114.156C10.6116 113.739 10.6874 113.27 10.6249 112.809C10.3906 111.304 10.3906 109.772 10.6249 108.267C10.6874 107.807 10.6116 107.338 10.4071 106.921C10.2026 106.503 9.87865 106.156 9.47642 105.923L6.24439 104.048L10.9319 95.9297L14.1616 97.8047C14.5659 98.0379 15.0306 98.145 15.4961 98.1125C15.9617 98.0799 16.407 97.9091 16.7749 97.6219C17.9723 96.6841 19.2943 95.9174 20.703 95.3437C21.1358 95.1687 21.5064 94.8683 21.7674 94.4813C22.0284 94.0942 22.1678 93.6379 22.1678 93.1711V87.0937C22.1678 86.4721 21.9209 85.876 21.4814 85.4365C21.0418 84.9969 20.4457 84.75 19.8241 84.75C19.2025 84.75 18.6063 84.9969 18.1668 85.4365C17.7273 85.876 17.4803 86.4721 17.4803 87.0937V91.6453C16.6908 92.0392 15.9268 92.4822 15.1928 92.9719L11.2342 90.6937C10.6959 90.383 10.0562 90.2987 9.4558 90.4596C8.8554 90.6205 8.34348 91.0133 8.03267 91.5516L1.00142 103.739C0.693605 104.277 0.611041 104.914 0.771777 105.512C0.932513 106.11 1.32348 106.62 1.85924 106.931L5.80142 109.207C5.73426 110.089 5.73426 110.974 5.80142 111.855L1.85924 114.131C1.32221 114.442 0.930338 114.953 0.769535 115.552C0.608732 116.152 0.692123 116.79 1.00142 117.328L8.03267 129.516C8.34348 130.054 8.8554 130.447 9.4558 130.608C10.0562 130.768 10.6959 130.684 11.2342 130.373L15.1811 128.095C15.9151 128.585 16.6791 129.028 17.4686 129.422V133.969C17.4686 134.59 17.7155 135.186 18.1551 135.626C18.5946 136.066 19.1908 136.312 19.8124 136.312H33.8749C34.4965 136.312 35.0926 136.066 35.5321 135.626C35.9717 135.186 36.2186 134.59 36.2186 133.969V129.417C37.0092 129.024 37.774 128.581 38.5085 128.091L42.453 130.369C42.7196 130.523 43.0141 130.623 43.3195 130.664C43.6248 130.704 43.9352 130.684 44.2328 130.604C44.5303 130.524 44.8093 130.387 45.0536 130.199C45.298 130.012 45.503 129.778 45.6569 129.511L47.703 125.967L48.8866 127.153C49.3261 127.592 49.9221 127.839 50.5436 127.839C51.1651 127.839 51.7611 127.592 52.2006 127.153L58.3085 121.045C61.561 122.911 65.0383 124.355 68.6561 125.341V133.969C68.6561 134.59 68.903 135.186 69.3426 135.626C69.7821 136.066 70.3783 136.312 70.9999 136.312H80.3749C80.9965 136.312 81.5926 136.066 82.0321 135.626C82.4717 135.186 82.7186 134.59 82.7186 133.969C82.7186 133.347 82.4717 132.751 82.0321 132.311C81.5926 131.872 80.9965 131.625 80.3749 131.625ZM26.8436 115.219C25.9165 115.219 25.0102 114.944 24.2394 114.429C23.4685 113.914 22.8677 113.182 22.5129 112.325C22.1581 111.469 22.0653 110.526 22.2462 109.617C22.427 108.707 22.8735 107.872 23.5291 107.217C24.1846 106.561 25.0198 106.115 25.9291 105.934C26.8384 105.753 27.7809 105.846 28.6374 106.201C29.494 106.555 30.2261 107.156 30.7411 107.927C31.2562 108.698 31.5311 109.604 31.5311 110.531C31.5311 111.774 31.0373 112.967 30.1582 113.846C29.2791 114.725 28.0868 115.219 26.8436 115.219Z" fill="white"/>
<path d="M124.906 7.40625C122.265 7.41285 119.664 8.0552 117.323 9.27903C114.982 10.5029 112.971 12.2722 111.458 14.4375H106.156V12.0938C106.162 10.7338 105.772 9.40163 105.033 8.25986C104.295 7.11808 103.239 6.21617 101.996 5.66432C100.754 5.11247 99.3768 4.93456 98.0344 5.15234C96.6921 5.37011 95.4422 5.97414 94.4375 6.89063C93.1596 5.71495 91.4865 5.06241 89.75 5.06241C88.0135 5.06241 86.3404 5.71495 85.0625 6.89063C83.7846 5.71495 82.1115 5.06241 80.375 5.06241C78.6385 5.06241 76.9654 5.71495 75.6875 6.89063C74.6828 5.97414 73.4329 5.37011 72.0906 5.15234C70.7482 4.93456 69.3715 5.11247 68.1286 5.66432C66.8856 6.21617 65.8304 7.11808 65.0916 8.25986C64.3529 9.40163 63.9627 10.7338 63.9688 12.0938V13.7109C62.9856 12.9316 61.8217 12.413 60.5848 12.2032C59.3479 11.9934 58.0781 12.0993 56.893 12.5109C55.8038 12.9079 54.8307 13.57 54.0617 14.4375H42.7086C42.1399 10.5347 40.1864 6.96673 37.2049 4.38496C34.2234 1.80319 30.4127 0.379907 26.4688 0.375H17.0938C12.7441 0.379963 8.57395 2.11007 5.49826 5.18576C2.42257 8.26145 0.692463 12.4316 0.6875 16.7812C0.6875 17.4029 0.93443 17.999 1.37397 18.4385C1.81351 18.8781 2.40965 19.125 3.03125 19.125H17.0938C17.7154 19.125 18.3115 18.8781 18.751 18.4385C19.1906 17.999 19.4375 17.4029 19.4375 16.7812C19.4375 16.1596 19.1906 15.5635 18.751 15.124C18.3115 14.6844 17.7154 14.4375 17.0938 14.4375H5.60938C6.15294 11.7922 7.59209 9.4152 9.68414 7.70741C11.7762 5.99961 14.3932 5.06547 17.0938 5.0625H26.4688C29.5756 5.06622 32.5542 6.30207 34.751 8.49895C36.9479 10.6958 38.1838 13.6744 38.1875 16.7812C38.1875 17.4029 38.4344 17.999 38.874 18.4385C39.3135 18.8781 39.9096 19.125 40.5312 19.125H52.25V28.5H40.5312C39.9096 28.5 39.3135 28.7469 38.874 29.1865C38.4344 29.626 38.1875 30.2221 38.1875 30.8438C38.1838 33.9506 36.9479 36.9292 34.751 39.126C32.5542 41.3229 29.5756 42.5588 26.4688 42.5625H17.0938C14.3932 42.5595 11.7762 41.6254 9.68414 39.9176C7.59209 38.2098 6.15294 35.8328 5.60938 33.1875H26.4688C27.0904 33.1875 27.6865 32.9406 28.126 32.501C28.5656 32.0615 28.8125 31.4654 28.8125 30.8438V16.7812C28.8125 16.1596 28.5656 15.5635 28.126 15.124C27.6865 14.6844 27.0904 14.4375 26.4688 14.4375C25.8471 14.4375 25.251 14.6844 24.8115 15.124C24.3719 15.5635 24.125 16.1596 24.125 16.7812V28.5H3.03125C2.40965 28.5 1.81351 28.7469 1.37397 29.1865C0.93443 29.626 0.6875 30.2221 0.6875 30.8438C0.692463 35.1934 2.42257 39.3635 5.49826 42.4392C8.57395 45.5149 12.7441 47.245 17.0938 47.25H26.4688C30.4127 47.2451 34.2234 45.8218 37.2049 43.24C40.1864 40.6583 42.1399 37.0903 42.7086 33.1875H52.25V35.5312C52.2497 35.8948 52.3339 36.2535 52.4961 36.5789L61.625 54.8344V61.4977C58.2148 64.554 55.603 68.3973 54.0171 72.6932C52.4311 76.9892 51.9189 81.6077 52.5251 86.1467C53.1313 90.6858 54.8375 95.008 57.4952 98.7372C60.153 102.466 63.6817 105.49 67.7745 107.544C71.8672 109.598 76.4 110.621 80.9783 110.524C85.5566 110.427 90.0419 109.212 94.0437 106.986C98.0456 104.76 101.443 101.59 103.94 97.751C106.437 93.9124 107.958 89.5216 108.371 84.9609C108.4 84.6536 108.368 84.3436 108.277 84.0487C108.186 83.7538 108.037 83.4798 107.84 83.2424C107.643 83.0051 107.401 82.809 107.127 82.6655C106.854 82.522 106.555 82.4339 106.248 82.4062C105.63 82.3577 105.018 82.5527 104.542 82.9495C104.067 83.3463 103.765 83.9135 103.702 84.5297C103.323 88.8748 101.737 93.0276 99.125 96.5203V68.5148C100.829 70.7631 102.105 73.3053 102.889 76.0148C103.061 76.6099 103.462 77.1126 104.004 77.413C104.546 77.7134 105.184 77.7871 105.78 77.618C106.376 77.4489 106.881 77.0507 107.184 76.5105C107.487 75.9703 107.564 75.332 107.398 74.7352C105.955 69.6185 103.086 65.0182 99.125 61.4719V55.2516L99.9852 54.3914C103.736 50.6472 105.934 45.6246 106.14 40.3289C106.152 40.0211 106.104 39.7139 105.997 39.4249C105.891 39.1358 105.729 38.8705 105.52 38.6442C105.098 38.187 104.511 37.9163 103.89 37.8914C103.582 37.8791 103.275 37.9275 102.986 38.0339C102.697 38.1404 102.431 38.3027 102.205 38.5116C101.748 38.9335 101.477 39.5198 101.452 40.1414C101.292 44.2589 99.5829 48.164 96.6664 51.075L95.1195 52.6219C94.9024 52.8401 94.7305 53.099 94.6134 53.3837C94.4964 53.6684 94.4366 53.9734 94.4375 54.2812V101.198C89.9241 104.583 84.3411 106.227 78.7135 105.827C73.086 105.427 67.7915 103.011 63.8022 99.0213C59.8129 95.0319 57.3964 89.7375 56.9965 84.1099C56.5965 78.4823 58.2399 72.8994 61.625 68.3859V88.2375C61.625 88.8591 61.8719 89.4552 62.3115 89.8948C62.751 90.3343 63.3471 90.5812 63.9688 90.5812C64.5904 90.5812 65.1865 90.3343 65.626 89.8948C66.0656 89.4552 66.3125 88.8591 66.3125 88.2375V54.2812C66.3128 53.9177 66.2286 53.559 66.0664 53.2336L56.9375 34.9781V19.125C56.9372 18.6429 57.0856 18.1725 57.3624 17.7778C57.6392 17.3832 58.031 17.0834 58.4844 16.9195C59.7031 16.4813 61.1094 17.0906 62.3539 18.5906C63.425 19.931 63.9959 21.6024 63.9688 23.318V33.1875C63.9688 33.8091 64.2157 34.4052 64.6552 34.8448C65.0948 35.2843 65.6909 35.5312 66.3125 35.5312C68.7989 35.5312 71.1835 36.519 72.9416 38.2771C74.6998 40.0353 75.6875 42.4198 75.6875 44.9062V54.2812C75.6875 54.9029 75.9344 55.499 76.374 55.9385C76.8135 56.3781 77.4096 56.625 78.0312 56.625C78.6529 56.625 79.249 56.3781 79.6885 55.9385C80.1281 55.499 80.375 54.9029 80.375 54.2812V44.9062C80.3751 42.8324 79.9158 40.7843 79.0299 38.9092C78.144 37.0341 76.8536 35.3786 75.2516 34.0617C75.4016 33.9469 75.5469 33.8273 75.6875 33.7031C76.9654 34.8788 78.6385 35.5313 80.375 35.5313C82.1115 35.5313 83.7846 34.8788 85.0625 33.7031C86.3404 34.8788 88.0135 35.5313 89.75 35.5313C91.4865 35.5313 93.1596 34.8788 94.4375 33.7031C95.4422 34.6196 96.6921 35.2236 98.0344 35.4414C99.3768 35.6592 100.754 35.4813 101.996 34.9294C103.239 34.3776 104.295 33.4757 105.033 32.3339C105.772 31.1921 106.162 29.8599 106.156 28.5V19.125H112.742C113.153 19.1246 113.557 19.0161 113.913 18.8104C114.269 18.6047 114.564 18.3091 114.77 17.9531C116.059 15.719 118.05 13.973 120.434 12.9858C122.817 11.9986 125.46 11.8254 127.951 12.4931C130.443 13.1607 132.645 14.632 134.215 16.6786C135.786 18.7252 136.637 21.2328 136.637 23.8125C136.637 26.3922 135.786 28.8998 134.215 30.9464C132.645 32.993 130.443 34.4643 127.951 35.1319C125.46 35.7996 122.817 35.6264 120.434 34.6392C118.05 33.652 116.059 31.906 114.77 29.6719C114.449 29.1537 113.939 28.7807 113.348 28.632C112.757 28.4834 112.132 28.5707 111.604 28.8755C111.076 29.1803 110.688 29.6787 110.522 30.2649C110.355 30.8511 110.424 31.479 110.713 32.0156C112.153 34.5102 114.224 36.5817 116.719 38.0216C119.214 39.4616 122.044 40.2194 124.924 40.2187C127.805 40.2181 130.634 39.4591 133.129 38.018C135.623 36.5769 137.693 34.5046 139.133 32.0093C140.572 29.5141 141.329 26.684 141.327 23.8034C141.325 20.9229 140.565 18.0936 139.124 15.6C137.682 13.1063 135.609 11.0363 133.113 9.59794C130.617 8.15961 127.787 7.40371 124.906 7.40625ZM68.6562 12.0938C68.6562 11.4721 68.9032 10.876 69.3427 10.4365C69.7823 9.99693 70.3784 9.75 71 9.75C71.6216 9.75 72.2177 9.99693 72.6573 10.4365C73.0968 10.876 73.3438 11.4721 73.3438 12.0938V28.5C73.3438 29.1216 73.0968 29.7177 72.6573 30.1573C72.2177 30.5968 71.6216 30.8438 71 30.8438C70.3784 30.8438 69.7823 30.5968 69.3427 30.1573C68.9032 29.7177 68.6562 29.1216 68.6562 28.5V12.0938ZM80.375 30.8438C79.7534 30.8438 79.1573 30.5968 78.7177 30.1573C78.2782 29.7177 78.0312 29.1216 78.0312 28.5V12.0938C78.0312 11.4721 78.2782 10.876 78.7177 10.4365C79.1573 9.99693 79.7534 9.75 80.375 9.75C80.9966 9.75 81.5927 9.99693 82.0323 10.4365C82.4718 10.876 82.7188 11.4721 82.7188 12.0938V28.5C82.7188 29.1216 82.4718 29.7177 82.0323 30.1573C81.5927 30.5968 80.9966 30.8438 80.375 30.8438ZM89.75 30.8438C89.1284 30.8438 88.5323 30.5968 88.0927 30.1573C87.6532 29.7177 87.4062 29.1216 87.4062 28.5V12.0938C87.4062 11.4721 87.6532 10.876 88.0927 10.4365C88.5323 9.99693 89.1284 9.75 89.75 9.75C90.3716 9.75 90.9677 9.99693 91.4073 10.4365C91.8468 10.876 92.0938 11.4721 92.0938 12.0938V28.5C92.0938 29.1216 91.8468 29.7177 91.4073 30.1573C90.9677 30.5968 90.3716 30.8438 89.75 30.8438ZM101.469 28.5C101.469 29.1216 101.222 29.7177 100.782 30.1573C100.343 30.5968 99.7466 30.8438 99.125 30.8438C98.5034 30.8438 97.9073 30.5968 97.4677 30.1573C97.0282 29.7177 96.7812 29.1216 96.7812 28.5V12.0938C96.7812 11.4721 97.0282 10.876 97.4677 10.4365C97.9073 9.99693 98.5034 9.75 99.125 9.75C99.7466 9.75 100.343 9.99693 100.782 10.4365C101.222 10.876 101.469 11.4721 101.469 12.0938V28.5Z" fill="white"/>
<path d="M124.906 21.4688C125.528 21.4688 126.124 21.2218 126.564 20.7823C127.003 20.3427 127.25 19.7466 127.25 19.125C127.25 18.5034 127.003 17.9073 126.564 17.4677C126.124 17.0282 125.528 16.7812 124.906 16.7812C123.516 16.7812 122.156 17.1936 121 17.9662C119.844 18.7388 118.942 19.837 118.41 21.1218C117.878 22.4065 117.739 23.8203 118.01 25.1842C118.281 26.5482 118.951 27.801 119.934 28.7843C120.918 29.7677 122.171 30.4373 123.535 30.7086C124.898 30.9799 126.312 30.8407 127.597 30.3085C128.882 29.7764 129.98 28.8751 130.753 27.7189C131.525 26.5626 131.938 25.2031 131.938 23.8125C131.938 23.1909 131.691 22.5948 131.251 22.1552C130.811 21.7157 130.215 21.4688 129.594 21.4688C128.972 21.4688 128.376 21.7157 127.936 22.1552C127.497 22.5948 127.25 23.1909 127.25 23.8125C127.25 24.2761 127.113 24.7292 126.855 25.1146C126.597 25.5 126.231 25.8005 125.803 25.9778C125.375 26.1552 124.904 26.2016 124.449 26.1112C123.994 26.0208 123.577 25.7976 123.249 25.4698C122.921 25.142 122.698 24.7244 122.608 24.2697C122.517 23.8151 122.564 23.3438 122.741 22.9156C122.918 22.4873 123.219 22.1213 123.604 21.8637C123.99 21.6062 124.443 21.4688 124.906 21.4688Z" fill="white"/>
</svg>
