<svg width="54" height="54" viewBox="0 0 54 54" fill="none" xmlns="http://www.w3.org/2000/svg">
<circle cx="27" cy="27" r="27" fill="#FCC70E"/>
<path d="M18.368 23.544C18.48 22.44 18.88 21.448 19.568 20.568C20.272 19.672 21.248 18.968 22.496 18.456C23.76 17.928 25.264 17.664 27.008 17.664C28.56 17.664 29.904 17.872 31.04 18.288C32.192 18.688 33.08 19.256 33.704 19.992C34.328 20.712 34.64 21.568 34.64 22.56C34.64 23.392 34.392 24.144 33.896 24.816C33.416 25.472 32.68 25.992 31.688 26.376C30.696 26.76 29.456 26.952 27.968 26.952V26.496C29.44 26.432 30.704 26.568 31.76 26.904C32.816 27.224 33.624 27.72 34.184 28.392C34.76 29.048 35.048 29.856 35.048 30.816C35.048 31.888 34.72 32.84 34.064 33.672C33.408 34.504 32.456 35.16 31.208 35.64C29.976 36.104 28.464 36.336 26.672 36.336C24.928 36.336 23.408 36.088 22.112 35.592C20.816 35.08 19.8 34.368 19.064 33.456C18.344 32.544 17.944 31.48 17.864 30.264H21.056C21.2 31.384 21.744 32.248 22.688 32.856C23.632 33.448 24.96 33.744 26.672 33.744C28.384 33.744 29.672 33.464 30.536 32.904C31.4 32.344 31.832 31.576 31.832 30.6C31.832 30.024 31.68 29.544 31.376 29.16C31.088 28.76 30.6 28.456 29.912 28.248C29.24 28.04 28.328 27.936 27.176 27.936H23.912V25.584H27.176C28.664 25.584 29.744 25.344 30.416 24.864C31.088 24.368 31.424 23.736 31.424 22.968C31.424 22.12 31.048 21.456 30.296 20.976C29.56 20.496 28.408 20.256 26.84 20.256C25.304 20.256 24.08 20.544 23.168 21.12C22.272 21.68 21.736 22.488 21.56 23.544H18.368Z" fill="black"/>
</svg>
