<svg width="127" height="77" viewBox="0 0 127 77" fill="none" xmlns="http://www.w3.org/2000/svg">
                    <path d="M70.7011 28.7971C70.2976 24.5068 70.9578 22.2452 72.2416 18.5868C73.5256 14.9284 74.1858 15.8594 74.1858 15.8594L73.9656 24.9283C73.9656 30.8705 70.7011 28.7971 70.7011 28.7971ZM68.2233 23.9534C68.2233 23.9534 33.3303 23.5632 27.0398 24.9283C27.0398 24.9283 27.6312 17.7133 30.427 14.691C30.427 14.691 66.3951 11.7172 72.0406 13.6672C72.0406 13.6672 69.1909 21.2721 68.2233 23.9534ZM62.3222 48.8687C61.9936 50.4273 60.9573 52.1689 57.8736 52.0774C54.7898 51.9857 43.9463 52.9945 45.0329 50.6564C45.0329 50.6564 45.5132 48.8229 49.1023 48.1583C52.6917 47.4938 60.755 47.4249 60.755 47.4249C60.755 47.4249 62.6508 47.3104 62.3222 48.8687ZM75.1223 16.1326C75.7308 16.343 77.1512 17.0262 77.1512 17.0262C77.1512 17.0262 77.5858 17.4203 77.615 18.3136C77.6434 19.2069 77.615 19.8376 77.615 19.8376H74.5969L74.6009 18.8391V16.5007C74.6009 16.5007 74.5138 15.9225 75.1223 16.1326ZM85.0252 20.497C85.0252 20.497 85.0512 20.0522 85.5161 20.2628C85.9801 20.4735 87.1682 21.1054 87.1682 21.1054C87.1682 21.1054 87.4776 21.2694 87.4776 22.0652C87.4776 22.8612 87.4776 28.3153 87.4776 28.3153C87.4776 28.3153 87.5295 28.8771 86.8323 28.8771C86.1357 28.8771 85.8271 28.7971 85.5161 28.6897C85.2213 28.5882 85.1542 28.5495 85.0252 27.6365C84.8965 26.7233 85.0252 20.497 85.0252 20.497ZM89.7956 49.472C89.6731 48.2081 87.083 48.2925 87.083 48.2925L73.1451 48.7559C73.0524 48.3768 72.5409 46.776 72.5409 46.776C72.5409 46.776 81.9262 46.7339 85.8758 46.481C89.8245 46.2282 89.4156 44.2805 89.4156 44.2805C89.4156 44.2805 89.8748 28.1799 89.7829 25.1015C89.6915 22.0228 88.9112 10.4156 88.5902 8.00266C88.2684 5.58947 88.2689 2.55269 85.6072 1.67898C82.9463 0.805271 80.1477 0.222874 78.1749 0.0563698C76.202 -0.110134 60.372 0.0563698 53.9484 1.0549C47.5248 2.05342 43.8081 2.88594 41.7892 6.42199C39.7704 9.95827 38.5777 9.6672 38.5777 9.6672C37.0635 9.87515 32.0164 10.9985 31.0985 11.4144C30.1809 11.8305 28.7127 13.3698 28.3457 14.7427C27.9787 16.1155 29.0797 15.9075 29.0797 15.9075C27.015 19.6934 26.4458 25.0188 26.4458 25.0188C25.267 25.3121 24.0767 25.7479 22.9519 26.2373V20.6456C22.9519 20.2974 22.6404 20.0149 22.2563 20.0149H20.4006C20.0166 20.0149 19.7051 20.2974 19.7051 20.6456V27.6853C19.7051 27.742 19.7161 27.7959 19.7315 27.8482C17.9135 28.8685 16.6883 29.7371 16.6883 29.7371C15.0451 31.072 13.9433 32.5632 13.2085 34.0164C14.2538 32.8305 15.8629 32.2515 21.1964 32.165C27.7434 32.059 33.5891 31.6351 40.0192 32.165C46.449 32.6951 45.163 35.5934 45.163 37.4835C45.163 39.3734 43.8771 47.6417 42.5911 50.5038C42.0375 51.7353 42.0077 52.3521 41.6318 52.6718C45.6349 53.1044 62.8939 52.4634 62.8939 52.4634C63.5146 50.062 63.7382 49.6068 64.2031 48.3008C64.6675 46.995 68.4188 41.5183 71.3329 47.408C74.1912 53.1843 73.1911 61.5208 73.1911 61.5208C74.1203 61.4786 77.1407 61.0575 77.1407 61.0575C77.1407 61.0575 84.9925 58.9509 87.5479 58.2768C90.1033 57.6029 89.7956 56.3386 89.7956 56.3386C89.7956 56.3386 89.9176 50.7358 89.7956 49.472Z" fill="#FCC70E"/>
                    <path d="M11.7422 41.241C9.75832 42.3386 8.50351 44.7567 7.73009 47.0237C8.54884 47.0151 11.2828 47.0698 11.8146 48.1583C12.4415 49.4415 12.2493 50.9541 11.3393 51.1375C10.5534 51.2961 7.5446 51.0563 6.73821 50.9881C6.63195 51.6156 6.59033 52.0009 6.59033 52.0009L13.9894 52.1328C13.2444 51.3697 12.1803 49.198 11.8146 43.0418C11.8146 43.0418 11.7626 42.2947 11.7422 41.241Z" fill="#FCC70E"/>
                    <path d="M90.7747 25.1013C90.8667 28.1798 90.4075 44.2803 90.4075 44.2803C90.4075 44.2803 90.5138 44.785 90.097 45.3137L93.6725 45.3772V2.03295L87.812 2.35909C89.2713 3.64379 89.3189 6.03123 89.5815 8.00254C89.9025 10.4155 90.6828 22.0226 90.7747 25.1013Z" fill="#FCC70E"/>
                    <path d="M14.8328 50.8481H18.5434C18.9275 50.8481 19.2389 50.5657 19.2389 50.2174V36.064C19.2389 35.7157 18.9275 35.4333 18.5434 35.4333H14.8328C14.4488 35.4333 14.1375 35.7157 14.1375 36.064V50.2174C14.1375 50.5657 14.4488 50.8481 14.8328 50.8481Z" fill="#FCC70E"/>
                    <path d="M35.7246 50.8481H40.5418C40.9258 50.8481 41.2371 50.5657 41.2371 50.2174V36.064C41.2371 35.7157 40.9258 35.4333 40.5418 35.4333H35.7246C35.3406 35.4333 35.0291 35.7157 35.0291 36.064V50.2174C35.0291 50.5657 35.3406 50.8481 35.7246 50.8481Z" fill="#FCC70E"/>
                    <path d="M20.6631 50.8481H25.7502C26.1343 50.8481 26.4456 50.5657 26.4456 50.2174V36.064C26.4456 35.7157 26.1343 35.4333 25.7502 35.4333H20.6631C20.279 35.4333 19.9675 35.7157 19.9675 36.064V50.2174C19.9675 50.5657 20.279 50.8481 20.6631 50.8481Z" fill="#FCC70E"/>
                    <path d="M28.1128 50.8481H33.2001C33.5842 50.8481 33.8954 50.5657 33.8954 50.2174V36.064C33.8954 35.7157 33.5842 35.4333 33.2001 35.4333H28.1128C27.7288 35.4333 27.4175 35.7157 27.4175 36.064V50.2174C27.4175 50.5657 27.7288 50.8481 28.1128 50.8481Z" fill="#FCC70E"/>
                    <path d="M48.6365 62.0043C48.6365 62.3984 48.2844 62.7179 47.8495 62.7179H43.5743C43.1397 62.7179 42.7874 62.3984 42.7874 62.0043V59.7032C42.7874 59.3092 43.1397 58.9896 43.5743 58.9896H47.8495C48.2844 58.9896 48.6365 59.3092 48.6365 59.7032V62.0043ZM40.3569 61.8496C40.3447 62.2979 39.9342 62.6522 39.4395 62.6412L34.7387 62.5362C34.2443 62.5252 33.8532 62.1525 33.8657 61.7042L33.9276 59.4244C33.9398 58.9761 34.3503 58.6218 34.8447 58.6328L39.5458 58.738C40.0402 58.7488 40.4312 59.1213 40.4188 59.5698L40.3569 61.8496ZM32.1083 61.355C32.0964 61.7491 31.7346 62.0593 31.2999 62.0485L21.4731 61.8025C21.0387 61.7915 20.6961 61.4634 20.7082 61.0693L20.7741 58.9082C20.786 58.5142 21.1481 58.2037 21.5825 58.2147L31.4092 58.4609C31.8438 58.4717 32.1862 58.7996 32.1743 59.1939L32.1083 61.355ZM11.0127 61.0311L8.68818 60.9097C8.3048 60.8898 8.01163 60.5916 8.03384 60.2439L8.1626 58.214C8.1848 57.8663 8.51355 57.6005 8.89693 57.6206L11.2214 57.7417C11.6049 57.7616 11.8977 58.06 11.8758 58.4075L11.7469 60.4376C11.7249 60.7854 11.3962 61.0509 11.0127 61.0311ZM14.2708 57.8938L18.3994 58.0605C18.8337 58.0777 19.17 58.4112 19.1508 58.805L19.0526 60.8072C19.0332 61.2008 18.6656 61.5061 18.2313 61.4884L14.1027 61.3221C13.6685 61.3045 13.3321 60.9712 13.3513 60.5772L13.4495 58.575C13.4689 58.1814 13.8366 57.8763 14.2708 57.8938ZM52.7849 54.0044C51.1357 54.0044 27.1927 53.5061 19.9676 53.2844C12.7426 53.063 5.93713 52.6186 5.93713 52.6186C5.63172 53.9465 5.75385 61.5205 5.75385 61.5205C6.32295 61.8356 8.7652 62.1044 11.816 62.3241C12.6842 67.8038 15.6386 71.8396 19.1518 71.8396C22.5182 71.8396 25.3711 68.1328 26.3673 63.0012C27.0328 63.0213 27.4174 63.0316 27.4174 63.0316C27.4174 63.0316 48.8759 63.5855 51.9297 63.5855C54.9839 63.5855 57.2437 63.2532 57.2437 63.2532L62.5606 62.9918C62.0657 58.3302 62.8938 53.3116 62.8938 53.3116C62.3137 53.394 54.4341 54.0044 52.7849 54.0044Z" fill="#FCC70E"/>
                    <path d="M67.875 46.1395C65.3834 46.1395 63.3643 51.8925 63.3643 58.9894C63.3643 66.0862 65.3834 71.8396 67.875 71.8396C70.3661 71.8396 72.3855 66.0862 72.3855 58.9894C72.3855 51.8925 70.3661 46.1395 67.875 46.1395Z" fill="#FCC70E"/>
                    <path d="M94.8352 46.2171C93.7702 46.2171 92.9072 49.7357 92.9072 54.0761C92.9072 58.4164 93.7702 61.9351 94.8352 61.9351C95.9 61.9351 96.763 58.4164 96.763 54.0761C96.763 49.7357 95.9 46.2171 94.8352 46.2171Z" fill="#FCC70E"/>
                    <path d="M99.1918 46.0593C98.2342 46.0593 97.4583 49.2228 97.4583 53.1252C97.4583 57.0274 98.2342 60.1904 99.1918 60.1904C100.149 60.1904 100.925 57.0274 100.925 53.1252C100.925 49.2228 100.149 46.0593 99.1918 46.0593Z" fill="#FCC70E"/>
                    <path d="M116.508 46.5081C116.084 46.5081 115.741 48.2715 115.741 50.4466C115.741 52.6214 116.084 54.3848 116.508 54.3848C116.931 54.3848 117.275 52.6214 117.275 50.4466C117.275 48.2715 116.931 46.5081 116.508 46.5081Z" fill="#FCC70E"/>
                    <path d="M118.063 46.5082C117.82 46.5082 117.622 48.1325 117.622 50.1362C117.622 52.1396 117.82 53.7639 118.063 53.7639C118.306 53.7639 118.503 52.1396 118.503 50.1362C118.503 48.1325 118.306 46.5082 118.063 46.5082Z" fill="#FCC70E"/>
                    <path d="M94.542 2.03292V45.3772L121.68 46.217V25.4638L94.542 2.03292Z" fill="#FCC70E"/>
                    <path d="M102.08 52.4749L115.142 49.9224C115.142 49.9224 115.095 49.403 115.162 48.8481C115.21 48.4467 115.288 47.901 115.288 47.901L101.652 48.3189C101.923 49.6163 102.08 52.4749 102.08 52.4749Z" fill="#FCC70E"/>
                    <path d="M127 50.8483C127 50.8483 126.668 51.2176 125.987 51.8627C125.303 52.5045 124.284 53.4375 122.898 54.5376C121.515 55.6401 119.786 56.9341 117.702 58.2987C117.181 58.6398 116.644 58.9944 116.08 59.3426C115.799 59.5187 115.513 59.6977 115.225 59.8787C114.932 60.055 114.635 60.2332 114.335 60.4142C114.033 60.5937 113.73 60.7803 113.417 60.9598C113.103 61.1364 112.785 61.3151 112.463 61.4961C111.821 61.8632 111.153 62.22 110.47 62.5834C107.737 64.0388 104.698 65.5018 101.389 66.8698C98.0819 68.2403 94.515 69.5336 90.7542 70.6844C89.8187 70.9863 88.8616 71.2504 87.9002 71.5255C86.9409 71.8068 85.9633 72.0537 84.9813 72.3078C84.4896 72.4338 83.9966 72.5606 83.5022 72.6871C83.0051 72.8039 82.5067 72.9209 82.0069 73.038C81.5066 73.1538 81.0049 73.2695 80.5019 73.386C79.9981 73.4981 79.4899 73.5966 78.9823 73.7034C76.9534 74.1347 74.8945 74.512 72.8213 74.8564C71.7822 75.0162 70.7413 75.1769 69.699 75.3372C68.651 75.465 67.602 75.5935 66.5529 75.7217C64.4713 75.9549 62.4219 76.2482 60.2962 76.3779C59.2422 76.4583 58.1905 76.5388 57.142 76.6187C56.0932 76.6955 55.0468 76.7845 54.0089 76.8065C51.9311 76.8769 49.8705 76.9728 47.8338 77C45.7968 76.9909 43.7847 76.9814 41.8056 76.9723C39.8292 76.8909 37.886 76.8104 35.984 76.7318C34.0855 76.604 32.23 76.4559 30.4256 76.3151C29.5231 76.2442 28.6377 76.1265 27.7633 76.0369C26.8902 75.9397 26.0304 75.8434 25.1847 75.7492C24.762 75.7046 24.3442 75.6467 23.9309 75.5844C23.5175 75.5251 23.1077 75.4655 22.7017 75.407C21.8903 75.2904 21.0941 75.1753 20.3142 75.0628C19.5332 74.9598 18.7764 74.808 18.0331 74.6874C17.2911 74.5584 16.5665 74.4323 15.8601 74.3095C14.4505 74.0481 13.1231 73.7551 11.8727 73.5042C11.2466 73.3828 10.6482 73.2288 10.0671 73.1001C9.48639 72.9682 8.92816 72.8365 8.39244 72.7074C7.32251 72.4444 6.34709 72.1761 5.46382 71.9485C4.58277 71.711 3.80251 71.4787 3.12374 71.2801C2.44921 71.0692 1.87537 70.8897 1.41022 70.744C0.485005 70.4392 0 70.259 0 70.259C0 70.259 0.126877 70.2884 0.372919 70.3453C0.619594 70.3988 0.985644 70.4782 1.46315 70.5819C1.94192 70.6786 2.53235 70.7975 3.22654 70.9375C3.92272 71.0662 4.72296 71.2144 5.61911 71.3804C6.51931 71.529 7.51076 71.7088 8.59654 71.8754C9.68635 72.0252 10.8536 72.2305 12.1111 72.399C13.3711 72.557 14.7051 72.7509 16.1196 72.9074C17.5363 73.0496 19.0167 73.2469 20.5706 73.389C21.3477 73.4559 22.1411 73.5243 22.9497 73.5942C23.3535 73.629 23.7613 73.6644 24.1728 73.6996C24.5837 73.7376 24.9991 73.7713 25.4194 73.7914C27.0994 73.8838 28.8302 74.0216 30.6138 74.1058C32.3995 74.1626 34.231 74.2516 36.1035 74.3043C37.9769 74.3235 39.8906 74.3428 41.837 74.3625C43.7817 74.3252 45.759 74.2874 47.7608 74.2487C48.2611 74.2479 48.7617 74.2109 49.2645 74.1864C49.7667 74.1594 50.2705 74.1327 50.7754 74.1058C51.7853 74.0564 52.8005 74.0066 53.8196 73.9569C54.8421 73.923 55.8541 73.8227 56.8718 73.7354C57.8898 73.6504 58.9107 73.5647 59.9332 73.4794C61.97 73.3511 64.0572 73.0427 66.1288 72.8051C67.1546 72.6842 68.1799 72.5633 69.2046 72.4427C70.2247 72.2899 71.244 72.1373 72.2609 71.9851C74.2882 71.6497 76.3106 71.3237 78.2983 70.9213C78.7959 70.8237 79.2946 70.7334 79.7885 70.63C80.2818 70.5233 80.7734 70.4171 81.2643 70.3112C81.756 70.2068 82.2457 70.1028 82.7347 69.9988C83.2207 69.885 83.705 69.7715 84.1883 69.6582C85.1541 69.4299 86.1158 69.2087 87.0599 68.953C88.0048 68.7023 88.9519 68.478 89.8747 68.2077C93.5852 67.1813 97.1259 66.0471 100.428 64.8421C103.73 63.6361 106.803 62.3779 109.581 61.107C112.354 59.8269 114.851 58.5645 117.015 57.3674C119.173 56.1624 121.019 55.0518 122.498 54.0824C123.973 53.1092 125.11 52.311 125.861 51.7396C126.615 51.1722 127 50.8483 127 50.8483Z" fill="#FCC70E"/>
                </svg>