<svg width="54" height="54" viewBox="0 0 54 54" fill="none" xmlns="http://www.w3.org/2000/svg">
<circle cx="27" cy="27" r="27" fill="#FCC70E"/>
<path d="M18.008 24.192C18.104 22.864 18.528 21.712 19.28 20.736C20.048 19.76 21.064 19.008 22.328 18.48C23.592 17.936 25.032 17.664 26.648 17.664C28.184 17.664 29.528 17.904 30.68 18.384C31.848 18.864 32.752 19.536 33.392 20.4C34.048 21.264 34.376 22.264 34.376 23.4C34.376 24.28 34.16 25.096 33.728 25.848C33.312 26.6 32.616 27.368 31.64 28.152C30.68 28.92 29.376 29.792 27.728 30.768L21.752 34.296L21.344 33.36H34.928V36H18.176V33.696L25.832 29.04C27.176 28.224 28.232 27.52 29 26.928C29.784 26.32 30.344 25.752 30.68 25.224C31.016 24.696 31.184 24.136 31.184 23.544C31.184 22.92 31.016 22.36 30.68 21.864C30.344 21.368 29.832 20.976 29.144 20.688C28.472 20.4 27.608 20.256 26.552 20.256C25.352 20.256 24.368 20.432 23.6 20.784C22.832 21.136 22.256 21.616 21.872 22.224C21.504 22.816 21.28 23.472 21.2 24.192H18.008Z" fill="black"/>
</svg>
