<svg width="183" height="189" viewBox="0 0 183 189" fill="none" xmlns="http://www.w3.org/2000/svg">
<circle cx="96.5" cy="72" r="55" fill="#FCC70E"/>
<g clip-path="url(#clip0_225_4173)">
<path d="M113.862 150.644C113.862 150.022 113.616 149.426 113.176 148.987C112.736 148.547 112.14 148.3 111.519 148.3H109.237V130.928C109.238 130.431 109.08 129.946 108.786 129.544C108.493 129.143 108.079 128.845 107.605 128.694C107.131 128.543 106.622 128.546 106.15 128.704C105.678 128.862 105.269 129.166 104.981 129.572L91.0031 149.288C90.7554 149.639 90.6088 150.051 90.5793 150.48C90.5498 150.908 90.6385 151.337 90.8358 151.718C91.033 152.1 91.3313 152.42 91.6981 152.644C92.0648 152.868 92.4859 152.987 92.9156 152.988H104.55V157.234C104.55 157.856 104.797 158.452 105.236 158.892C105.676 159.331 106.272 159.578 106.894 159.578C107.515 159.578 108.111 159.331 108.551 158.892C108.991 158.452 109.237 157.856 109.237 157.234V152.988H111.519C112.14 152.988 112.736 152.741 113.176 152.301C113.616 151.862 113.862 151.265 113.862 150.644ZM104.55 148.3H97.4531L104.55 138.3V148.3ZM127.156 127.9C126.87 127.786 126.565 127.729 126.257 127.734C125.949 127.738 125.645 127.803 125.362 127.925C125.079 128.047 124.823 128.223 124.609 128.444C124.394 128.665 124.226 128.926 124.112 129.213L113.325 156.369C113.211 156.655 113.155 156.96 113.16 157.268C113.164 157.576 113.229 157.88 113.351 158.163C113.473 158.445 113.649 158.701 113.87 158.915C114.091 159.13 114.351 159.299 114.637 159.413C114.923 159.526 115.229 159.582 115.537 159.578C115.845 159.574 116.149 159.509 116.431 159.387C116.714 159.265 116.97 159.088 117.184 158.868C117.399 158.647 117.568 158.386 117.681 158.1L128.469 130.941C128.582 130.655 128.639 130.349 128.634 130.042C128.63 129.734 128.565 129.431 128.443 129.148C128.321 128.866 128.144 128.61 127.924 128.396C127.703 128.182 127.442 128.013 127.156 127.9ZM149.775 130.509C149.585 130.108 149.285 129.769 148.91 129.532C148.535 129.295 148.1 129.169 147.656 129.169H131.634C131.013 129.169 130.417 129.416 129.977 129.855C129.538 130.295 129.291 130.891 129.291 131.513C129.291 132.134 129.538 132.73 129.977 133.17C130.417 133.609 131.013 133.856 131.634 133.856H142.962C140.688 137.012 138.713 140.373 137.066 143.897C135.188 148.058 133.925 152.47 133.316 156.994C133.253 157.612 133.437 158.23 133.829 158.712C134.221 159.194 134.788 159.501 135.406 159.566H135.65C136.228 159.565 136.786 159.351 137.216 158.963C137.646 158.576 137.917 158.044 137.978 157.469C138.547 153.439 139.681 149.51 141.347 145.797C143.569 141.236 146.294 136.939 149.472 132.984C149.75 132.642 149.927 132.229 149.98 131.791C150.034 131.353 149.963 130.909 149.775 130.509Z" fill="white"/>
<path d="M89.8781 154.891H77.2281C77.6396 153.943 78.273 153.108 79.075 152.456C80.8379 151.063 82.6705 149.76 84.5656 148.553C85.9125 147.728 87.1953 146.802 88.4031 145.784C90.4238 143.838 91.6036 141.179 91.6906 138.375C91.714 135.748 90.7182 133.214 88.9125 131.306C88.0246 130.414 86.9637 129.712 85.7949 129.245C84.6261 128.777 83.374 128.554 82.1156 128.587C80.7762 128.504 79.4342 128.705 78.1778 129.177C76.9214 129.648 75.7788 130.38 74.8251 131.325C73.8715 132.269 73.1282 133.404 72.644 134.656C72.1598 135.907 71.9457 137.247 72.0156 138.587C72.0156 139.209 72.2626 139.805 72.7021 140.245C73.1416 140.684 73.7378 140.931 74.3594 140.931C74.981 140.931 75.5771 140.684 76.0167 140.245C76.4562 139.805 76.7031 139.209 76.7031 138.587C76.6389 137.865 76.7357 137.137 76.9864 136.457C77.2372 135.776 77.6357 135.16 78.1534 134.652C78.671 134.143 79.2948 133.756 79.98 133.518C80.6651 133.28 81.3945 133.197 82.1156 133.275C82.7476 133.245 83.3788 133.346 83.9702 133.571C84.5615 133.795 85.1004 134.139 85.5531 134.581C86.4812 135.582 86.9968 136.897 86.9969 138.262C86.9414 139.817 86.2915 141.291 85.1813 142.381C84.1582 143.198 83.0875 143.954 81.975 144.644C79.9446 145.941 77.9807 147.34 76.0906 148.834C74.8346 149.868 73.8188 151.162 73.114 152.628C72.4091 154.094 72.0322 155.696 72.0094 157.322C72.0328 157.928 72.2898 158.502 72.7267 158.923C73.1635 159.344 73.7463 159.58 74.3531 159.581H89.8719C90.4935 159.581 91.0896 159.334 91.5292 158.895C91.9687 158.455 92.2156 157.859 92.2156 157.237C92.2156 156.616 91.9687 156.02 91.5292 155.58C91.0896 155.141 90.4935 154.894 89.8719 154.894L89.8781 154.891ZM61.6531 52.3468C45.3017 52.3468 29.62 58.8424 18.0578 70.4046C6.49558 81.9668 0 97.6485 0 114C0 130.351 6.49558 146.033 18.0578 157.595C29.62 169.157 45.3017 175.653 61.6531 175.653C61.961 175.653 62.266 175.593 62.5505 175.475C62.8351 175.358 63.0936 175.185 63.3113 174.968C63.529 174.75 63.7017 174.491 63.8193 174.207C63.937 173.922 63.9973 173.617 63.9969 173.309V163.35C63.9969 162.728 63.75 162.132 63.3104 161.693C62.8709 161.253 62.2747 161.006 61.6531 161.006C61.0315 161.006 60.4354 161.253 59.9958 161.693C59.5563 162.132 59.3094 162.728 59.3094 163.35V170.919C50.9036 170.567 42.6824 168.342 35.2469 164.406L38.9969 157.912C39.1508 157.646 39.2506 157.351 39.2907 157.046C39.3308 156.741 39.3104 156.43 39.2306 156.133C39.1508 155.835 39.0132 155.557 38.8256 155.312C38.6381 155.068 38.4043 154.863 38.1375 154.709C37.8708 154.555 37.5763 154.456 37.271 154.415C36.9656 154.375 36.6554 154.396 36.358 154.476C36.0605 154.555 35.7817 154.693 35.5375 154.881C35.2932 155.068 35.0883 155.302 34.9344 155.569L31.1844 162.056C24.0889 157.555 18.0689 151.55 13.55 144.466L20.0656 140.716C20.6043 140.405 20.9975 139.893 21.1587 139.292C21.3199 138.691 21.2358 138.051 20.925 137.512C20.7711 137.246 20.5662 137.012 20.3219 136.824C20.0777 136.637 19.7989 136.499 19.5014 136.419C18.9007 136.258 18.2606 136.342 17.7219 136.653L11.2 140.425C7.30619 132.972 5.12101 124.746 4.80312 116.344H12.3031C12.9247 116.344 13.5209 116.097 13.9604 115.657C14.3999 115.218 14.6469 114.622 14.6469 114C14.6469 113.378 14.3999 112.782 13.9604 112.343C13.5209 111.903 12.9247 111.656 12.3031 111.656H4.80312C5.12101 103.254 7.30619 95.0275 11.2 87.5749L17.7437 91.3531C18.2825 91.6639 18.9226 91.7479 19.5233 91.5868C20.124 91.4256 20.6361 91.0324 20.9469 90.4937C21.2577 89.955 21.3417 89.3148 21.1806 88.7141C21.0194 88.1134 20.6262 87.6014 20.0875 87.2906L13.5719 83.5406C18.0901 76.4541 24.1101 70.4468 31.2063 65.9437L34.9563 72.4312C35.1101 72.6979 35.3151 72.9318 35.5593 73.1193C35.8036 73.3069 36.0824 73.4445 36.3798 73.5243C36.6773 73.6041 36.9875 73.6245 37.2929 73.5844C37.5982 73.5443 37.8926 73.4445 38.1594 73.2906C38.4261 73.1367 38.66 72.9317 38.8475 72.6875C39.035 72.4432 39.1727 72.1644 39.2525 71.867C39.3323 71.5695 39.3527 71.2593 39.3126 70.954C39.2725 70.6486 39.1726 70.3542 39.0188 70.0874L35.2688 63.5937C42.7043 59.6574 50.9254 57.4324 59.3313 57.0812V64.6499C59.3313 65.2715 59.5782 65.8677 60.0177 66.3072C60.4573 66.7468 61.0534 66.9937 61.675 66.9937C62.2966 66.9937 62.8927 66.7468 63.3323 66.3072C63.7718 65.8677 64.0188 65.2715 64.0188 64.6499V54.6906C64.0192 54.3808 63.9581 54.0741 63.8391 53.7881C63.7201 53.5021 63.5455 53.2426 63.3255 53.0246C63.1055 52.8066 62.8443 52.6344 62.5573 52.518C62.2702 52.4017 61.9629 52.3435 61.6531 52.3468Z" fill="white"/>
<path d="M61.6532 82C61.0316 82 60.4355 82.2469 59.996 82.6865C59.5564 83.126 59.3095 83.7221 59.3095 84.3438V112.781L43.4376 123.975C42.9543 124.343 42.6328 124.885 42.5406 125.486C42.4484 126.086 42.5928 126.699 42.9434 127.195C43.294 127.692 43.8235 128.033 44.4204 128.147C45.0173 128.261 45.6351 128.139 46.1439 127.806L63.0189 115.931C63.3253 115.712 63.5743 115.422 63.7446 115.086C63.9149 114.749 64.0015 114.377 63.997 114V84.3438C63.997 83.7221 63.7501 83.126 63.3105 82.6865C62.871 82.2469 62.2748 82 61.6532 82Z" fill="white"/>
<path d="M77.0218 59.0622C78.3214 59.0622 79.375 58.0087 79.375 56.7091C79.375 55.4095 78.3214 54.356 77.0218 54.356C75.7222 54.356 74.6687 55.4095 74.6687 56.7091C74.6687 58.0087 75.7222 59.0622 77.0218 59.0622Z" fill="white"/>
<path d="M91.3126 64.9997C92.6122 64.9997 93.6657 63.9462 93.6657 62.6466C93.6657 61.347 92.6122 60.2935 91.3126 60.2935C90.013 60.2935 88.9595 61.347 88.9595 62.6466C88.9595 63.9462 90.013 64.9997 91.3126 64.9997Z" fill="white"/>
<path d="M103.575 74.403C104.875 74.403 105.928 73.3495 105.928 72.0499C105.928 70.7503 104.875 69.6968 103.575 69.6968C102.275 69.6968 101.222 70.7503 101.222 72.0499C101.222 73.3495 102.275 74.403 103.575 74.403Z" fill="white"/>
<path d="M113.006 86.6906C114.306 86.6906 115.359 85.6371 115.359 84.3375C115.359 83.0379 114.306 81.9844 113.006 81.9844C111.707 81.9844 110.653 83.0379 110.653 84.3375C110.653 85.6371 111.707 86.6906 113.006 86.6906Z" fill="white"/>
<path d="M118.947 101C120.246 101 121.3 99.9462 121.3 98.6466C121.3 97.347 120.246 96.2935 118.947 96.2935C117.647 96.2935 116.594 97.347 116.594 98.6466C116.594 99.9462 117.647 101 118.947 101Z" fill="white"/>
<path d="M120.959 116.369C122.259 116.369 123.312 115.315 123.312 114.016C123.312 112.716 122.259 111.663 120.959 111.663C119.66 111.663 118.606 112.716 118.606 114.016C118.606 115.315 119.66 116.369 120.959 116.369Z" fill="white"/>
</g>
<defs>
<clipPath id="clip0_225_4173">
<rect width="150" height="150" fill="white" transform="translate(0 39)"/>
</clipPath>
</defs>
</svg>
